<svg width="2145" height="1438" viewBox="0 0 2145 1438" fill="none" xmlns="http://www.w3.org/2000/svg">
<path d="M1072.3 19.4C1077.66 19.4 1082 15.0572 1082 9.7C1082 4.34284 1077.66 0 1072.3 0C1066.94 0 1062.6 4.34284 1062.6 9.7C1062.6 15.0572 1066.94 19.4 1072.3 19.4Z" fill="#D9DBE2"/>
<path d="M1197.3 19.4C1202.66 19.4 1207 15.0572 1207 9.7C1207 4.34284 1202.66 0 1197.3 0C1191.94 0 1187.6 4.34284 1187.6 9.7C1187.6 15.0572 1191.94 19.4 1197.3 19.4Z" fill="#D9DBE2"/>
<path d="M1322.3 19.4C1327.66 19.4 1332 15.0572 1332 9.7C1332 4.34284 1327.66 0 1322.3 0C1316.94 0 1312.6 4.34284 1312.6 9.7C1312.6 15.0572 1316.94 19.4 1322.3 19.4Z" fill="#D9DBE2"/>
<path d="M1447.3 19.4C1452.66 19.4 1457 15.0572 1457 9.7C1457 4.34284 1452.66 0 1447.3 0C1441.94 0 1437.6 4.34284 1437.6 9.7C1437.6 15.0572 1441.94 19.4 1447.3 19.4Z" fill="#D9DBE2"/>
<path d="M1572.3 19.4C1577.66 19.4 1582 15.0572 1582 9.7C1582 4.34284 1577.66 0 1572.3 0C1566.94 0 1562.6 4.34284 1562.6 9.7C1562.6 15.0572 1566.94 19.4 1572.3 19.4Z" fill="#D9DBE2"/>
<path d="M1697.3 19.4C1702.66 19.4 1707 15.0572 1707 9.7C1707 4.34284 1702.66 0 1697.3 0C1691.94 0 1687.6 4.34284 1687.6 9.7C1687.6 15.0572 1691.94 19.4 1697.3 19.4Z" fill="#D9DBE2"/>
<path d="M1822.3 19.4C1827.66 19.4 1832 15.0572 1832 9.7C1832 4.34284 1827.66 0 1822.3 0C1816.94 0 1812.6 4.34284 1812.6 9.7C1812.6 15.0572 1816.94 19.4 1822.3 19.4Z" fill="#D9DBE2"/>
<path d="M1947.4 19.4C1952.76 19.4 1957.1 15.0572 1957.1 9.7C1957.1 4.34284 1952.76 0 1947.4 0C1942.04 0 1937.7 4.34284 1937.7 9.7C1937.7 15.0572 1942.04 19.4 1947.4 19.4Z" fill="#D9DBE2"/>
<path d="M2072.4 19.4C2077.76 19.4 2082.1 15.0572 2082.1 9.7C2082.1 4.34284 2077.76 0 2072.4 0C2067.04 0 2062.7 4.34284 2062.7 9.7C2062.7 15.0572 2067.04 19.4 2072.4 19.4Z" fill="#D9DBE2"/>
<path d="M1134.8 76.2C1140.16 76.2 1144.5 71.8572 1144.5 66.5C1144.5 61.1429 1140.16 56.8 1134.8 56.8C1129.44 56.8 1125.1 61.1429 1125.1 66.5C1125.1 71.8572 1129.44 76.2 1134.8 76.2Z" fill="#D9DBE2"/>
<path d="M1259.8 76.2C1265.16 76.2 1269.5 71.8572 1269.5 66.5C1269.5 61.1429 1265.16 56.8 1259.8 56.8C1254.44 56.8 1250.1 61.1429 1250.1 66.5C1250.1 71.8572 1254.44 76.2 1259.8 76.2Z" fill="#D9DBE2"/>
<path d="M1384.8 76.2C1390.16 76.2 1394.5 71.8572 1394.5 66.5C1394.5 61.1429 1390.16 56.8 1384.8 56.8C1379.44 56.8 1375.1 61.1429 1375.1 66.5C1375.1 71.8572 1379.44 76.2 1384.8 76.2Z" fill="#D9DBE2"/>
<path d="M1509.8 76.2C1515.16 76.2 1519.5 71.8572 1519.5 66.5C1519.5 61.1429 1515.16 56.8 1509.8 56.8C1504.44 56.8 1500.1 61.1429 1500.1 66.5C1500.1 71.8572 1504.44 76.2 1509.8 76.2Z" fill="#D9DBE2"/>
<path d="M1634.8 76.2C1640.16 76.2 1644.5 71.8572 1644.5 66.5C1644.5 61.1429 1640.16 56.8 1634.8 56.8C1629.44 56.8 1625.1 61.1429 1625.1 66.5C1625.1 71.8572 1629.44 76.2 1634.8 76.2Z" fill="#D9DBE2"/>
<path d="M1759.8 76.2C1765.16 76.2 1769.5 71.8572 1769.5 66.5C1769.5 61.1429 1765.16 56.8 1759.8 56.8C1754.44 56.8 1750.1 61.1429 1750.1 66.5C1750.1 71.8572 1754.44 76.2 1759.8 76.2Z" fill="#D9DBE2"/>
<path d="M1884.9 76.2C1890.26 76.2 1894.6 71.8572 1894.6 66.5C1894.6 61.1429 1890.26 56.8 1884.9 56.8C1879.54 56.8 1875.2 61.1429 1875.2 66.5C1875.2 71.8572 1879.54 76.2 1884.9 76.2Z" fill="#D9DBE2"/>
<path d="M2009.9 76.2C2015.26 76.2 2019.6 71.8572 2019.6 66.5C2019.6 61.1429 2015.26 56.8 2009.9 56.8C2004.54 56.8 2000.2 61.1429 2000.2 66.5C2000.2 71.8572 2004.54 76.2 2009.9 76.2Z" fill="#D9DBE2"/>
<path d="M2134.9 76.2C2140.26 76.2 2144.6 71.8572 2144.6 66.5C2144.6 61.1429 2140.26 56.8 2134.9 56.8C2129.54 56.8 2125.2 61.1429 2125.2 66.5C2125.2 71.8572 2129.54 76.2 2134.9 76.2Z" fill="#D9DBE2"/>
<path d="M1072.3 143.2C1077.66 143.2 1082 138.857 1082 133.5C1082 128.143 1077.66 123.8 1072.3 123.8C1066.94 123.8 1062.6 128.143 1062.6 133.5C1062.6 138.857 1066.94 143.2 1072.3 143.2Z" fill="#D9DBE2"/>
<path d="M1197.3 143.2C1202.66 143.2 1207 138.857 1207 133.5C1207 128.143 1202.66 123.8 1197.3 123.8C1191.94 123.8 1187.6 128.143 1187.6 133.5C1187.6 138.857 1191.94 143.2 1197.3 143.2Z" fill="#D9DBE2"/>
<path d="M1322.3 143.2C1327.66 143.2 1332 138.857 1332 133.5C1332 128.143 1327.66 123.8 1322.3 123.8C1316.94 123.8 1312.6 128.143 1312.6 133.5C1312.6 138.857 1316.94 143.2 1322.3 143.2Z" fill="#D9DBE2"/>
<path d="M1447.3 143.2C1452.66 143.2 1457 138.857 1457 133.5C1457 128.143 1452.66 123.8 1447.3 123.8C1441.94 123.8 1437.6 128.143 1437.6 133.5C1437.6 138.857 1441.94 143.2 1447.3 143.2Z" fill="#D9DBE2"/>
<path d="M1572.3 143.2C1577.66 143.2 1582 138.857 1582 133.5C1582 128.143 1577.66 123.8 1572.3 123.8C1566.94 123.8 1562.6 128.143 1562.6 133.5C1562.6 138.857 1566.94 143.2 1572.3 143.2Z" fill="#D9DBE2"/>
<path d="M1697.3 143.2C1702.66 143.2 1707 138.857 1707 133.5C1707 128.143 1702.66 123.8 1697.3 123.8C1691.94 123.8 1687.6 128.143 1687.6 133.5C1687.6 138.857 1691.94 143.2 1697.3 143.2Z" fill="#D9DBE2"/>
<path d="M1822.3 143.2C1827.66 143.2 1832 138.857 1832 133.5C1832 128.143 1827.66 123.8 1822.3 123.8C1816.94 123.8 1812.6 128.143 1812.6 133.5C1812.6 138.857 1816.94 143.2 1822.3 143.2Z" fill="#D9DBE2"/>
<path d="M1947.4 143.2C1952.76 143.2 1957.1 138.857 1957.1 133.5C1957.1 128.143 1952.76 123.8 1947.4 123.8C1942.04 123.8 1937.7 128.143 1937.7 133.5C1937.7 138.857 1942.04 143.2 1947.4 143.2Z" fill="#D9DBE2"/>
<path d="M2072.4 143.2C2077.76 143.2 2082.1 138.857 2082.1 133.5C2082.1 128.143 2077.76 123.8 2072.4 123.8C2067.04 123.8 2062.7 128.143 2062.7 133.5C2062.7 138.857 2067.04 143.2 2072.4 143.2Z" fill="#D9DBE2"/>
<path d="M1134.8 200C1140.16 200 1144.5 195.657 1144.5 190.3C1144.5 184.943 1140.16 180.6 1134.8 180.6C1129.44 180.6 1125.1 184.943 1125.1 190.3C1125.1 195.657 1129.44 200 1134.8 200Z" fill="#D9DBE2"/>
<path d="M1259.8 200C1265.16 200 1269.5 195.657 1269.5 190.3C1269.5 184.943 1265.16 180.6 1259.8 180.6C1254.44 180.6 1250.1 184.943 1250.1 190.3C1250.1 195.657 1254.44 200 1259.8 200Z" fill="#D9DBE2"/>
<path d="M1384.8 200C1390.16 200 1394.5 195.657 1394.5 190.3C1394.5 184.943 1390.16 180.6 1384.8 180.6C1379.44 180.6 1375.1 184.943 1375.1 190.3C1375.1 195.657 1379.44 200 1384.8 200Z" fill="#D9DBE2"/>
<path d="M1509.8 200C1515.16 200 1519.5 195.657 1519.5 190.3C1519.5 184.943 1515.16 180.6 1509.8 180.6C1504.44 180.6 1500.1 184.943 1500.1 190.3C1500.1 195.657 1504.44 200 1509.8 200Z" fill="#D9DBE2"/>
<path d="M1634.8 200C1640.16 200 1644.5 195.657 1644.5 190.3C1644.5 184.943 1640.16 180.6 1634.8 180.6C1629.44 180.6 1625.1 184.943 1625.1 190.3C1625.1 195.657 1629.44 200 1634.8 200Z" fill="#D9DBE2"/>
<path d="M1759.8 200C1765.16 200 1769.5 195.657 1769.5 190.3C1769.5 184.943 1765.16 180.6 1759.8 180.6C1754.44 180.6 1750.1 184.943 1750.1 190.3C1750.1 195.657 1754.44 200 1759.8 200Z" fill="#D9DBE2"/>
<path d="M1884.9 200C1890.26 200 1894.6 195.657 1894.6 190.3C1894.6 184.943 1890.26 180.6 1884.9 180.6C1879.54 180.6 1875.2 184.943 1875.2 190.3C1875.2 195.657 1879.54 200 1884.9 200Z" fill="#D9DBE2"/>
<path d="M2009.9 200C2015.26 200 2019.6 195.657 2019.6 190.3C2019.6 184.943 2015.26 180.6 2009.9 180.6C2004.54 180.6 2000.2 184.943 2000.2 190.3C2000.2 195.657 2004.54 200 2009.9 200Z" fill="#D9DBE2"/>
<path d="M2134.9 200C2140.26 200 2144.6 195.657 2144.6 190.3C2144.6 184.943 2140.26 180.6 2134.9 180.6C2129.54 180.6 2125.2 184.943 2125.2 190.3C2125.2 195.657 2129.54 200 2134.9 200Z" fill="#D9DBE2"/>
<path d="M1072.3 267C1077.66 267 1082 262.657 1082 257.3C1082 251.943 1077.66 247.6 1072.3 247.6C1066.94 247.6 1062.6 251.943 1062.6 257.3C1062.6 262.657 1066.94 267 1072.3 267Z" fill="#D9DBE2"/>
<path d="M1197.3 267C1202.66 267 1207 262.657 1207 257.3C1207 251.943 1202.66 247.6 1197.3 247.6C1191.94 247.6 1187.6 251.943 1187.6 257.3C1187.6 262.657 1191.94 267 1197.3 267Z" fill="#D9DBE2"/>
<path d="M1322.3 267C1327.66 267 1332 262.657 1332 257.3C1332 251.943 1327.66 247.6 1322.3 247.6C1316.94 247.6 1312.6 251.943 1312.6 257.3C1312.6 262.657 1316.94 267 1322.3 267Z" fill="#D9DBE2"/>
<path d="M1447.3 267C1452.66 267 1457 262.657 1457 257.3C1457 251.943 1452.66 247.6 1447.3 247.6C1441.94 247.6 1437.6 251.943 1437.6 257.3C1437.6 262.657 1441.94 267 1447.3 267Z" fill="#D9DBE2"/>
<path d="M1572.3 267C1577.66 267 1582 262.657 1582 257.3C1582 251.943 1577.66 247.6 1572.3 247.6C1566.94 247.6 1562.6 251.943 1562.6 257.3C1562.6 262.657 1566.94 267 1572.3 267Z" fill="#D9DBE2"/>
<path d="M1697.3 267C1702.66 267 1707 262.657 1707 257.3C1707 251.943 1702.66 247.6 1697.3 247.6C1691.94 247.6 1687.6 251.943 1687.6 257.3C1687.6 262.657 1691.94 267 1697.3 267Z" fill="#D9DBE2"/>
<path d="M1822.3 267C1827.66 267 1832 262.657 1832 257.3C1832 251.943 1827.66 247.6 1822.3 247.6C1816.94 247.6 1812.6 251.943 1812.6 257.3C1812.6 262.657 1816.94 267 1822.3 267Z" fill="#D9DBE2"/>
<path d="M1947.4 267C1952.76 267 1957.1 262.657 1957.1 257.3C1957.1 251.943 1952.76 247.6 1947.4 247.6C1942.04 247.6 1937.7 251.943 1937.7 257.3C1937.7 262.657 1942.04 267 1947.4 267Z" fill="#D9DBE2"/>
<path d="M2072.4 267C2077.76 267 2082.1 262.657 2082.1 257.3C2082.1 251.943 2077.76 247.6 2072.4 247.6C2067.04 247.6 2062.7 251.943 2062.7 257.3C2062.7 262.657 2067.04 267 2072.4 267Z" fill="#D9DBE2"/>
<path d="M1134.8 323.8C1140.16 323.8 1144.5 319.457 1144.5 314.1C1144.5 308.743 1140.16 304.4 1134.8 304.4C1129.44 304.4 1125.1 308.743 1125.1 314.1C1125.1 319.457 1129.44 323.8 1134.8 323.8Z" fill="#D9DBE2"/>
<path d="M1259.8 323.8C1265.16 323.8 1269.5 319.457 1269.5 314.1C1269.5 308.743 1265.16 304.4 1259.8 304.4C1254.44 304.4 1250.1 308.743 1250.1 314.1C1250.1 319.457 1254.44 323.8 1259.8 323.8Z" fill="#D9DBE2"/>
<path d="M1384.8 323.8C1390.16 323.8 1394.5 319.457 1394.5 314.1C1394.5 308.743 1390.16 304.4 1384.8 304.4C1379.44 304.4 1375.1 308.743 1375.1 314.1C1375.1 319.457 1379.44 323.8 1384.8 323.8Z" fill="#D9DBE2"/>
<path d="M1509.8 323.8C1515.16 323.8 1519.5 319.457 1519.5 314.1C1519.5 308.743 1515.16 304.4 1509.8 304.4C1504.44 304.4 1500.1 308.743 1500.1 314.1C1500.1 319.457 1504.44 323.8 1509.8 323.8Z" fill="#D9DBE2"/>
<path d="M1634.8 323.8C1640.16 323.8 1644.5 319.457 1644.5 314.1C1644.5 308.743 1640.16 304.4 1634.8 304.4C1629.44 304.4 1625.1 308.743 1625.1 314.1C1625.1 319.457 1629.44 323.8 1634.8 323.8Z" fill="#D9DBE2"/>
<path d="M1759.8 323.8C1765.16 323.8 1769.5 319.457 1769.5 314.1C1769.5 308.743 1765.16 304.4 1759.8 304.4C1754.44 304.4 1750.1 308.743 1750.1 314.1C1750.1 319.457 1754.44 323.8 1759.8 323.8Z" fill="#D9DBE2"/>
<path d="M1884.9 323.8C1890.26 323.8 1894.6 319.457 1894.6 314.1C1894.6 308.743 1890.26 304.4 1884.9 304.4C1879.54 304.4 1875.2 308.743 1875.2 314.1C1875.2 319.457 1879.54 323.8 1884.9 323.8Z" fill="#D9DBE2"/>
<path d="M2009.9 323.8C2015.26 323.8 2019.6 319.457 2019.6 314.1C2019.6 308.743 2015.26 304.4 2009.9 304.4C2004.54 304.4 2000.2 308.743 2000.2 314.1C2000.2 319.457 2004.54 323.8 2009.9 323.8Z" fill="#D9DBE2"/>
<path d="M2134.9 323.8C2140.26 323.8 2144.6 319.457 2144.6 314.1C2144.6 308.743 2140.26 304.4 2134.9 304.4C2129.54 304.4 2125.2 308.743 2125.2 314.1C2125.2 319.457 2129.54 323.8 2134.9 323.8Z" fill="#D9DBE2"/>
<path d="M1072.3 390.8C1077.66 390.8 1082 386.457 1082 381.1C1082 375.743 1077.66 371.4 1072.3 371.4C1066.94 371.4 1062.6 375.743 1062.6 381.1C1062.6 386.457 1066.94 390.8 1072.3 390.8Z" fill="#D9DBE2"/>
<path d="M1197.3 390.8C1202.66 390.8 1207 386.457 1207 381.1C1207 375.743 1202.66 371.4 1197.3 371.4C1191.94 371.4 1187.6 375.743 1187.6 381.1C1187.6 386.457 1191.94 390.8 1197.3 390.8Z" fill="#D9DBE2"/>
<path d="M1322.3 390.8C1327.66 390.8 1332 386.457 1332 381.1C1332 375.743 1327.66 371.4 1322.3 371.4C1316.94 371.4 1312.6 375.743 1312.6 381.1C1312.6 386.457 1316.94 390.8 1322.3 390.8Z" fill="#D9DBE2"/>
<path d="M1447.3 390.8C1452.66 390.8 1457 386.457 1457 381.1C1457 375.743 1452.66 371.4 1447.3 371.4C1441.94 371.4 1437.6 375.743 1437.6 381.1C1437.6 386.457 1441.94 390.8 1447.3 390.8Z" fill="#D9DBE2"/>
<path d="M1572.3 390.8C1577.66 390.8 1582 386.457 1582 381.1C1582 375.743 1577.66 371.4 1572.3 371.4C1566.94 371.4 1562.6 375.743 1562.6 381.1C1562.6 386.457 1566.94 390.8 1572.3 390.8Z" fill="#D9DBE2"/>
<path d="M1697.3 390.8C1702.66 390.8 1707 386.457 1707 381.1C1707 375.743 1702.66 371.4 1697.3 371.4C1691.94 371.4 1687.6 375.743 1687.6 381.1C1687.6 386.457 1691.94 390.8 1697.3 390.8Z" fill="#D9DBE2"/>
<path d="M1822.3 390.8C1827.66 390.8 1832 386.457 1832 381.1C1832 375.743 1827.66 371.4 1822.3 371.4C1816.94 371.4 1812.6 375.743 1812.6 381.1C1812.6 386.457 1816.94 390.8 1822.3 390.8Z" fill="#D9DBE2"/>
<path d="M1947.4 390.8C1952.76 390.8 1957.1 386.457 1957.1 381.1C1957.1 375.743 1952.76 371.4 1947.4 371.4C1942.04 371.4 1937.7 375.743 1937.7 381.1C1937.7 386.457 1942.04 390.8 1947.4 390.8Z" fill="#D9DBE2"/>
<path d="M2072.4 390.8C2077.76 390.8 2082.1 386.457 2082.1 381.1C2082.1 375.743 2077.76 371.4 2072.4 371.4C2067.04 371.4 2062.7 375.743 2062.7 381.1C2062.7 386.457 2067.04 390.8 2072.4 390.8Z" fill="#D9DBE2"/>
<path d="M1134.8 447.6C1140.16 447.6 1144.5 443.257 1144.5 437.9C1144.5 432.543 1140.16 428.2 1134.8 428.2C1129.44 428.2 1125.1 432.543 1125.1 437.9C1125.1 443.257 1129.44 447.6 1134.8 447.6Z" fill="#D9DBE2"/>
<path d="M1259.8 447.6C1265.16 447.6 1269.5 443.257 1269.5 437.9C1269.5 432.543 1265.16 428.2 1259.8 428.2C1254.44 428.2 1250.1 432.543 1250.1 437.9C1250.1 443.257 1254.44 447.6 1259.8 447.6Z" fill="#D9DBE2"/>
<path d="M1384.8 447.6C1390.16 447.6 1394.5 443.257 1394.5 437.9C1394.5 432.543 1390.16 428.2 1384.8 428.2C1379.44 428.2 1375.1 432.543 1375.1 437.9C1375.1 443.257 1379.44 447.6 1384.8 447.6Z" fill="#D9DBE2"/>
<path d="M1509.8 447.6C1515.16 447.6 1519.5 443.257 1519.5 437.9C1519.5 432.543 1515.16 428.2 1509.8 428.2C1504.44 428.2 1500.1 432.543 1500.1 437.9C1500.1 443.257 1504.44 447.6 1509.8 447.6Z" fill="#D9DBE2"/>
<path d="M1634.8 447.6C1640.16 447.6 1644.5 443.257 1644.5 437.9C1644.5 432.543 1640.16 428.2 1634.8 428.2C1629.44 428.2 1625.1 432.543 1625.1 437.9C1625.1 443.257 1629.44 447.6 1634.8 447.6Z" fill="#D9DBE2"/>
<path d="M1759.8 447.6C1765.16 447.6 1769.5 443.257 1769.5 437.9C1769.5 432.543 1765.16 428.2 1759.8 428.2C1754.44 428.2 1750.1 432.543 1750.1 437.9C1750.1 443.257 1754.44 447.6 1759.8 447.6Z" fill="#D9DBE2"/>
<path d="M1884.9 447.6C1890.26 447.6 1894.6 443.257 1894.6 437.9C1894.6 432.543 1890.26 428.2 1884.9 428.2C1879.54 428.2 1875.2 432.543 1875.2 437.9C1875.2 443.257 1879.54 447.6 1884.9 447.6Z" fill="#D9DBE2"/>
<path d="M2009.9 447.6C2015.26 447.6 2019.6 443.257 2019.6 437.9C2019.6 432.543 2015.26 428.2 2009.9 428.2C2004.54 428.2 2000.2 432.543 2000.2 437.9C2000.2 443.257 2004.54 447.6 2009.9 447.6Z" fill="#D9DBE2"/>
<path d="M2134.9 447.6C2140.26 447.6 2144.6 443.257 2144.6 437.9C2144.6 432.543 2140.26 428.2 2134.9 428.2C2129.54 428.2 2125.2 432.543 2125.2 437.9C2125.2 443.257 2129.54 447.6 2134.9 447.6Z" fill="#D9DBE2"/>
<path d="M1072.3 514.6C1077.66 514.6 1082 510.257 1082 504.9C1082 499.543 1077.66 495.2 1072.3 495.2C1066.94 495.2 1062.6 499.543 1062.6 504.9C1062.6 510.257 1066.94 514.6 1072.3 514.6Z" fill="#D9DBE2"/>
<path d="M1197.3 514.6C1202.66 514.6 1207 510.257 1207 504.9C1207 499.543 1202.66 495.2 1197.3 495.2C1191.94 495.2 1187.6 499.543 1187.6 504.9C1187.6 510.257 1191.94 514.6 1197.3 514.6Z" fill="#D9DBE2"/>
<path d="M1322.3 514.6C1327.66 514.6 1332 510.257 1332 504.9C1332 499.543 1327.66 495.2 1322.3 495.2C1316.94 495.2 1312.6 499.543 1312.6 504.9C1312.6 510.257 1316.94 514.6 1322.3 514.6Z" fill="#D9DBE2"/>
<path d="M1447.3 514.6C1452.66 514.6 1457 510.257 1457 504.9C1457 499.543 1452.66 495.2 1447.3 495.2C1441.94 495.2 1437.6 499.543 1437.6 504.9C1437.6 510.257 1441.94 514.6 1447.3 514.6Z" fill="#D9DBE2"/>
<path d="M1572.3 514.6C1577.66 514.6 1582 510.257 1582 504.9C1582 499.543 1577.66 495.2 1572.3 495.2C1566.94 495.2 1562.6 499.543 1562.6 504.9C1562.6 510.257 1566.94 514.6 1572.3 514.6Z" fill="#D9DBE2"/>
<path d="M1697.3 514.6C1702.66 514.6 1707 510.257 1707 504.9C1707 499.543 1702.66 495.2 1697.3 495.2C1691.94 495.2 1687.6 499.543 1687.6 504.9C1687.6 510.257 1691.94 514.6 1697.3 514.6Z" fill="#D9DBE2"/>
<path d="M1822.3 514.6C1827.66 514.6 1832 510.257 1832 504.9C1832 499.543 1827.66 495.2 1822.3 495.2C1816.94 495.2 1812.6 499.543 1812.6 504.9C1812.6 510.257 1816.94 514.6 1822.3 514.6Z" fill="#D9DBE2"/>
<path d="M1947.4 514.6C1952.76 514.6 1957.1 510.257 1957.1 504.9C1957.1 499.543 1952.76 495.2 1947.4 495.2C1942.04 495.2 1937.7 499.543 1937.7 504.9C1937.7 510.257 1942.04 514.6 1947.4 514.6Z" fill="#D9DBE2"/>
<path d="M2072.4 514.6C2077.76 514.6 2082.1 510.257 2082.1 504.9C2082.1 499.543 2077.76 495.2 2072.4 495.2C2067.04 495.2 2062.7 499.543 2062.7 504.9C2062.7 510.257 2067.04 514.6 2072.4 514.6Z" fill="#D9DBE2"/>
<path d="M1134.8 571.4C1140.16 571.4 1144.5 567.057 1144.5 561.7C1144.5 556.343 1140.16 552 1134.8 552C1129.44 552 1125.1 556.343 1125.1 561.7C1125.1 567.057 1129.44 571.4 1134.8 571.4Z" fill="#D9DBE2"/>
<path d="M1259.8 571.4C1265.16 571.4 1269.5 567.057 1269.5 561.7C1269.5 556.343 1265.16 552 1259.8 552C1254.44 552 1250.1 556.343 1250.1 561.7C1250.1 567.057 1254.44 571.4 1259.8 571.4Z" fill="#D9DBE2"/>
<path d="M1384.8 571.4C1390.16 571.4 1394.5 567.057 1394.5 561.7C1394.5 556.343 1390.16 552 1384.8 552C1379.44 552 1375.1 556.343 1375.1 561.7C1375.1 567.057 1379.44 571.4 1384.8 571.4Z" fill="#D9DBE2"/>
<path d="M1509.8 571.4C1515.16 571.4 1519.5 567.057 1519.5 561.7C1519.5 556.343 1515.16 552 1509.8 552C1504.44 552 1500.1 556.343 1500.1 561.7C1500.1 567.057 1504.44 571.4 1509.8 571.4Z" fill="#D9DBE2"/>
<path d="M1634.8 571.4C1640.16 571.4 1644.5 567.057 1644.5 561.7C1644.5 556.343 1640.16 552 1634.8 552C1629.44 552 1625.1 556.343 1625.1 561.7C1625.1 567.057 1629.44 571.4 1634.8 571.4Z" fill="#D9DBE2"/>
<path d="M1759.8 571.4C1765.16 571.4 1769.5 567.057 1769.5 561.7C1769.5 556.343 1765.16 552 1759.8 552C1754.44 552 1750.1 556.343 1750.1 561.7C1750.1 567.057 1754.44 571.4 1759.8 571.4Z" fill="#D9DBE2"/>
<path d="M1884.9 571.4C1890.26 571.4 1894.6 567.057 1894.6 561.7C1894.6 556.343 1890.26 552 1884.9 552C1879.54 552 1875.2 556.343 1875.2 561.7C1875.2 567.057 1879.54 571.4 1884.9 571.4Z" fill="#D9DBE2"/>
<path d="M2009.9 571.4C2015.26 571.4 2019.6 567.057 2019.6 561.7C2019.6 556.343 2015.26 552 2009.9 552C2004.54 552 2000.2 556.343 2000.2 561.7C2000.2 567.057 2004.54 571.4 2009.9 571.4Z" fill="#D9DBE2"/>
<path d="M2134.9 571.4C2140.26 571.4 2144.6 567.057 2144.6 561.7C2144.6 556.343 2140.26 552 2134.9 552C2129.54 552 2125.2 556.343 2125.2 561.7C2125.2 567.057 2129.54 571.4 2134.9 571.4Z" fill="#D9DBE2"/>
<path d="M1072.3 638.4C1077.66 638.4 1082 634.057 1082 628.7C1082 623.343 1077.66 619 1072.3 619C1066.94 619 1062.6 623.343 1062.6 628.7C1062.6 634.057 1066.94 638.4 1072.3 638.4Z" fill="#D9DBE2"/>
<path d="M1197.3 638.4C1202.66 638.4 1207 634.057 1207 628.7C1207 623.343 1202.66 619 1197.3 619C1191.94 619 1187.6 623.343 1187.6 628.7C1187.6 634.057 1191.94 638.4 1197.3 638.4Z" fill="#D9DBE2"/>
<path d="M1322.3 638.4C1327.66 638.4 1332 634.057 1332 628.7C1332 623.343 1327.66 619 1322.3 619C1316.94 619 1312.6 623.343 1312.6 628.7C1312.6 634.057 1316.94 638.4 1322.3 638.4Z" fill="#D9DBE2"/>
<path d="M1447.3 638.4C1452.66 638.4 1457 634.057 1457 628.7C1457 623.343 1452.66 619 1447.3 619C1441.94 619 1437.6 623.343 1437.6 628.7C1437.6 634.057 1441.94 638.4 1447.3 638.4Z" fill="#D9DBE2"/>
<path d="M1572.3 638.4C1577.66 638.4 1582 634.057 1582 628.7C1582 623.343 1577.66 619 1572.3 619C1566.94 619 1562.6 623.343 1562.6 628.7C1562.6 634.057 1566.94 638.4 1572.3 638.4Z" fill="#D9DBE2"/>
<path d="M1697.3 638.4C1702.66 638.4 1707 634.057 1707 628.7C1707 623.343 1702.66 619 1697.3 619C1691.94 619 1687.6 623.343 1687.6 628.7C1687.6 634.057 1691.94 638.4 1697.3 638.4Z" fill="#D9DBE2"/>
<path d="M1822.3 638.4C1827.66 638.4 1832 634.057 1832 628.7C1832 623.343 1827.66 619 1822.3 619C1816.94 619 1812.6 623.343 1812.6 628.7C1812.6 634.057 1816.94 638.4 1822.3 638.4Z" fill="#D9DBE2"/>
<path d="M1947.4 638.4C1952.76 638.4 1957.1 634.057 1957.1 628.7C1957.1 623.343 1952.76 619 1947.4 619C1942.04 619 1937.7 623.343 1937.7 628.7C1937.7 634.057 1942.04 638.4 1947.4 638.4Z" fill="#D9DBE2"/>
<path d="M2072.4 638.4C2077.76 638.4 2082.1 634.057 2082.1 628.7C2082.1 623.343 2077.76 619 2072.4 619C2067.04 619 2062.7 623.343 2062.7 628.7C2062.7 634.057 2067.04 638.4 2072.4 638.4Z" fill="#D9DBE2"/>
<path d="M1134.8 695.2C1140.16 695.2 1144.5 690.857 1144.5 685.5C1144.5 680.143 1140.16 675.8 1134.8 675.8C1129.44 675.8 1125.1 680.143 1125.1 685.5C1125.1 690.857 1129.44 695.2 1134.8 695.2Z" fill="#D9DBE2"/>
<path d="M1259.8 695.2C1265.16 695.2 1269.5 690.857 1269.5 685.5C1269.5 680.143 1265.16 675.8 1259.8 675.8C1254.44 675.8 1250.1 680.143 1250.1 685.5C1250.1 690.857 1254.44 695.2 1259.8 695.2Z" fill="#D9DBE2"/>
<path d="M1384.8 695.2C1390.16 695.2 1394.5 690.857 1394.5 685.5C1394.5 680.143 1390.16 675.8 1384.8 675.8C1379.44 675.8 1375.1 680.143 1375.1 685.5C1375.1 690.857 1379.44 695.2 1384.8 695.2Z" fill="#D9DBE2"/>
<path d="M1509.8 695.2C1515.16 695.2 1519.5 690.857 1519.5 685.5C1519.5 680.143 1515.16 675.8 1509.8 675.8C1504.44 675.8 1500.1 680.143 1500.1 685.5C1500.1 690.857 1504.44 695.2 1509.8 695.2Z" fill="#D9DBE2"/>
<path d="M1634.8 695.2C1640.16 695.2 1644.5 690.857 1644.5 685.5C1644.5 680.143 1640.16 675.8 1634.8 675.8C1629.44 675.8 1625.1 680.143 1625.1 685.5C1625.1 690.857 1629.44 695.2 1634.8 695.2Z" fill="#D9DBE2"/>
<path d="M1759.8 695.2C1765.16 695.2 1769.5 690.857 1769.5 685.5C1769.5 680.143 1765.16 675.8 1759.8 675.8C1754.44 675.8 1750.1 680.143 1750.1 685.5C1750.1 690.857 1754.44 695.2 1759.8 695.2Z" fill="#D9DBE2"/>
<path d="M1884.9 695.2C1890.26 695.2 1894.6 690.857 1894.6 685.5C1894.6 680.143 1890.26 675.8 1884.9 675.8C1879.54 675.8 1875.2 680.143 1875.2 685.5C1875.2 690.857 1879.54 695.2 1884.9 695.2Z" fill="#D9DBE2"/>
<path d="M2009.9 695.2C2015.26 695.2 2019.6 690.857 2019.6 685.5C2019.6 680.143 2015.26 675.8 2009.9 675.8C2004.54 675.8 2000.2 680.143 2000.2 685.5C2000.2 690.857 2004.54 695.2 2009.9 695.2Z" fill="#D9DBE2"/>
<path d="M2134.9 695.2C2140.26 695.2 2144.6 690.857 2144.6 685.5C2144.6 680.143 2140.26 675.8 2134.9 675.8C2129.54 675.8 2125.2 680.143 2125.2 685.5C2125.2 690.857 2129.54 695.2 2134.9 695.2Z" fill="#D9DBE2"/>
<path d="M1072.3 762.2C1077.66 762.2 1082 757.857 1082 752.5C1082 747.143 1077.66 742.8 1072.3 742.8C1066.94 742.8 1062.6 747.143 1062.6 752.5C1062.6 757.857 1066.94 762.2 1072.3 762.2Z" fill="#D9DBE2"/>
<path d="M1197.3 762.2C1202.66 762.2 1207 757.857 1207 752.5C1207 747.143 1202.66 742.8 1197.3 742.8C1191.94 742.8 1187.6 747.143 1187.6 752.5C1187.6 757.857 1191.94 762.2 1197.3 762.2Z" fill="#D9DBE2"/>
<path d="M1322.3 762.2C1327.66 762.2 1332 757.857 1332 752.5C1332 747.143 1327.66 742.8 1322.3 742.8C1316.94 742.8 1312.6 747.143 1312.6 752.5C1312.6 757.857 1316.94 762.2 1322.3 762.2Z" fill="#D9DBE2"/>
<path d="M1447.3 762.2C1452.66 762.2 1457 757.857 1457 752.5C1457 747.143 1452.66 742.8 1447.3 742.8C1441.94 742.8 1437.6 747.143 1437.6 752.5C1437.6 757.857 1441.94 762.2 1447.3 762.2Z" fill="#D9DBE2"/>
<path d="M1572.3 762.2C1577.66 762.2 1582 757.857 1582 752.5C1582 747.143 1577.66 742.8 1572.3 742.8C1566.94 742.8 1562.6 747.143 1562.6 752.5C1562.6 757.857 1566.94 762.2 1572.3 762.2Z" fill="#D9DBE2"/>
<path d="M1697.3 762.2C1702.66 762.2 1707 757.857 1707 752.5C1707 747.143 1702.66 742.8 1697.3 742.8C1691.94 742.8 1687.6 747.143 1687.6 752.5C1687.6 757.857 1691.94 762.2 1697.3 762.2Z" fill="#D9DBE2"/>
<path d="M1822.3 762.2C1827.66 762.2 1832 757.857 1832 752.5C1832 747.143 1827.66 742.8 1822.3 742.8C1816.94 742.8 1812.6 747.143 1812.6 752.5C1812.6 757.857 1816.94 762.2 1822.3 762.2Z" fill="#D9DBE2"/>
<path d="M1947.4 762.2C1952.76 762.2 1957.1 757.857 1957.1 752.5C1957.1 747.143 1952.76 742.8 1947.4 742.8C1942.04 742.8 1937.7 747.143 1937.7 752.5C1937.7 757.857 1942.04 762.2 1947.4 762.2Z" fill="#D9DBE2"/>
<path d="M2072.4 762.2C2077.76 762.2 2082.1 757.857 2082.1 752.5C2082.1 747.143 2077.76 742.8 2072.4 742.8C2067.04 742.8 2062.7 747.143 2062.7 752.5C2062.7 757.857 2067.04 762.2 2072.4 762.2Z" fill="#D9DBE2"/>
<path d="M1134.8 819C1140.16 819 1144.5 814.657 1144.5 809.3C1144.5 803.943 1140.16 799.6 1134.8 799.6C1129.44 799.6 1125.1 803.943 1125.1 809.3C1125.1 814.657 1129.44 819 1134.8 819Z" fill="#D9DBE2"/>
<path d="M1259.8 819C1265.16 819 1269.5 814.657 1269.5 809.3C1269.5 803.943 1265.16 799.6 1259.8 799.6C1254.44 799.6 1250.1 803.943 1250.1 809.3C1250.1 814.657 1254.44 819 1259.8 819Z" fill="#D9DBE2"/>
<path d="M1384.8 819C1390.16 819 1394.5 814.657 1394.5 809.3C1394.5 803.943 1390.16 799.6 1384.8 799.6C1379.44 799.6 1375.1 803.943 1375.1 809.3C1375.1 814.657 1379.44 819 1384.8 819Z" fill="#D9DBE2"/>
<path d="M1509.8 819C1515.16 819 1519.5 814.657 1519.5 809.3C1519.5 803.943 1515.16 799.6 1509.8 799.6C1504.44 799.6 1500.1 803.943 1500.1 809.3C1500.1 814.657 1504.44 819 1509.8 819Z" fill="#D9DBE2"/>
<path d="M1634.8 819C1640.16 819 1644.5 814.657 1644.5 809.3C1644.5 803.943 1640.16 799.6 1634.8 799.6C1629.44 799.6 1625.1 803.943 1625.1 809.3C1625.1 814.657 1629.44 819 1634.8 819Z" fill="#D9DBE2"/>
<path d="M1759.8 819C1765.16 819 1769.5 814.657 1769.5 809.3C1769.5 803.943 1765.16 799.6 1759.8 799.6C1754.44 799.6 1750.1 803.943 1750.1 809.3C1750.1 814.657 1754.44 819 1759.8 819Z" fill="#D9DBE2"/>
<path d="M1884.9 819C1890.26 819 1894.6 814.657 1894.6 809.3C1894.6 803.943 1890.26 799.6 1884.9 799.6C1879.54 799.6 1875.2 803.943 1875.2 809.3C1875.2 814.657 1879.54 819 1884.9 819Z" fill="#D9DBE2"/>
<path d="M2009.9 819C2015.26 819 2019.6 814.657 2019.6 809.3C2019.6 803.943 2015.26 799.6 2009.9 799.6C2004.54 799.6 2000.2 803.943 2000.2 809.3C2000.2 814.657 2004.54 819 2009.9 819Z" fill="#D9DBE2"/>
<path d="M2134.9 819C2140.26 819 2144.6 814.657 2144.6 809.3C2144.6 803.943 2140.26 799.6 2134.9 799.6C2129.54 799.6 2125.2 803.943 2125.2 809.3C2125.2 814.657 2129.54 819 2134.9 819Z" fill="#D9DBE2"/>
<path d="M1072.3 886C1077.66 886 1082 881.657 1082 876.3C1082 870.943 1077.66 866.6 1072.3 866.6C1066.94 866.6 1062.6 870.943 1062.6 876.3C1062.6 881.657 1066.94 886 1072.3 886Z" fill="#D9DBE2"/>
<path d="M1197.3 886C1202.66 886 1207 881.657 1207 876.3C1207 870.943 1202.66 866.6 1197.3 866.6C1191.94 866.6 1187.6 870.943 1187.6 876.3C1187.6 881.657 1191.94 886 1197.3 886Z" fill="#D9DBE2"/>
<path d="M1322.3 886C1327.66 886 1332 881.657 1332 876.3C1332 870.943 1327.66 866.6 1322.3 866.6C1316.94 866.6 1312.6 870.943 1312.6 876.3C1312.6 881.657 1316.94 886 1322.3 886Z" fill="#D9DBE2"/>
<path d="M1447.3 886C1452.66 886 1457 881.657 1457 876.3C1457 870.943 1452.66 866.6 1447.3 866.6C1441.94 866.6 1437.6 870.943 1437.6 876.3C1437.6 881.657 1441.94 886 1447.3 886Z" fill="#D9DBE2"/>
<path d="M1572.3 886C1577.66 886 1582 881.657 1582 876.3C1582 870.943 1577.66 866.6 1572.3 866.6C1566.94 866.6 1562.6 870.943 1562.6 876.3C1562.6 881.657 1566.94 886 1572.3 886Z" fill="#D9DBE2"/>
<path d="M1697.3 886C1702.66 886 1707 881.657 1707 876.3C1707 870.943 1702.66 866.6 1697.3 866.6C1691.94 866.6 1687.6 870.943 1687.6 876.3C1687.6 881.657 1691.94 886 1697.3 886Z" fill="#D9DBE2"/>
<path d="M1822.3 886C1827.66 886 1832 881.657 1832 876.3C1832 870.943 1827.66 866.6 1822.3 866.6C1816.94 866.6 1812.6 870.943 1812.6 876.3C1812.6 881.657 1816.94 886 1822.3 886Z" fill="#D9DBE2"/>
<path d="M1947.4 886C1952.76 886 1957.1 881.657 1957.1 876.3C1957.1 870.943 1952.76 866.6 1947.4 866.6C1942.04 866.6 1937.7 870.943 1937.7 876.3C1937.7 881.657 1942.04 886 1947.4 886Z" fill="#D9DBE2"/>
<path d="M2072.4 886C2077.76 886 2082.1 881.657 2082.1 876.3C2082.1 870.943 2077.76 866.6 2072.4 866.6C2067.04 866.6 2062.7 870.943 2062.7 876.3C2062.7 881.657 2067.04 886 2072.4 886Z" fill="#D9DBE2"/>
<path d="M1134.8 942.8C1140.16 942.8 1144.5 938.457 1144.5 933.1C1144.5 927.743 1140.16 923.4 1134.8 923.4C1129.44 923.4 1125.1 927.743 1125.1 933.1C1125.1 938.457 1129.44 942.8 1134.8 942.8Z" fill="#D9DBE2"/>
<path d="M1259.8 942.8C1265.16 942.8 1269.5 938.457 1269.5 933.1C1269.5 927.743 1265.16 923.4 1259.8 923.4C1254.44 923.4 1250.1 927.743 1250.1 933.1C1250.1 938.457 1254.44 942.8 1259.8 942.8Z" fill="#D9DBE2"/>
<path d="M1384.8 942.8C1390.16 942.8 1394.5 938.457 1394.5 933.1C1394.5 927.743 1390.16 923.4 1384.8 923.4C1379.44 923.4 1375.1 927.743 1375.1 933.1C1375.1 938.457 1379.44 942.8 1384.8 942.8Z" fill="#D9DBE2"/>
<path d="M1509.8 942.8C1515.16 942.8 1519.5 938.457 1519.5 933.1C1519.5 927.743 1515.16 923.4 1509.8 923.4C1504.44 923.4 1500.1 927.743 1500.1 933.1C1500.1 938.457 1504.44 942.8 1509.8 942.8Z" fill="#D9DBE2"/>
<path d="M1634.8 942.8C1640.16 942.8 1644.5 938.457 1644.5 933.1C1644.5 927.743 1640.16 923.4 1634.8 923.4C1629.44 923.4 1625.1 927.743 1625.1 933.1C1625.1 938.457 1629.44 942.8 1634.8 942.8Z" fill="#D9DBE2"/>
<path d="M1759.8 942.8C1765.16 942.8 1769.5 938.457 1769.5 933.1C1769.5 927.743 1765.16 923.4 1759.8 923.4C1754.44 923.4 1750.1 927.743 1750.1 933.1C1750.1 938.457 1754.44 942.8 1759.8 942.8Z" fill="#D9DBE2"/>
<path d="M1884.9 942.8C1890.26 942.8 1894.6 938.457 1894.6 933.1C1894.6 927.743 1890.26 923.4 1884.9 923.4C1879.54 923.4 1875.2 927.743 1875.2 933.1C1875.2 938.457 1879.54 942.8 1884.9 942.8Z" fill="#D9DBE2"/>
<path d="M2009.9 942.8C2015.26 942.8 2019.6 938.457 2019.6 933.1C2019.6 927.743 2015.26 923.4 2009.9 923.4C2004.54 923.4 2000.2 927.743 2000.2 933.1C2000.2 938.457 2004.54 942.8 2009.9 942.8Z" fill="#D9DBE2"/>
<path d="M2134.9 942.8C2140.26 942.8 2144.6 938.457 2144.6 933.1C2144.6 927.743 2140.26 923.4 2134.9 923.4C2129.54 923.4 2125.2 927.743 2125.2 933.1C2125.2 938.457 2129.54 942.8 2134.9 942.8Z" fill="#D9DBE2"/>
<path d="M1072.3 1009.8C1077.66 1009.8 1082 1005.46 1082 1000.1C1082 994.743 1077.66 990.4 1072.3 990.4C1066.94 990.4 1062.6 994.743 1062.6 1000.1C1062.6 1005.46 1066.94 1009.8 1072.3 1009.8Z" fill="#D9DBE2"/>
<path d="M1197.3 1009.8C1202.66 1009.8 1207 1005.46 1207 1000.1C1207 994.743 1202.66 990.4 1197.3 990.4C1191.94 990.4 1187.6 994.743 1187.6 1000.1C1187.6 1005.46 1191.94 1009.8 1197.3 1009.8Z" fill="#D9DBE2"/>
<path d="M1322.3 1009.8C1327.66 1009.8 1332 1005.46 1332 1000.1C1332 994.743 1327.66 990.4 1322.3 990.4C1316.94 990.4 1312.6 994.743 1312.6 1000.1C1312.6 1005.46 1316.94 1009.8 1322.3 1009.8Z" fill="#D9DBE2"/>
<path d="M1447.3 1009.8C1452.66 1009.8 1457 1005.46 1457 1000.1C1457 994.743 1452.66 990.4 1447.3 990.4C1441.94 990.4 1437.6 994.743 1437.6 1000.1C1437.6 1005.46 1441.94 1009.8 1447.3 1009.8Z" fill="#D9DBE2"/>
<path d="M1572.3 1009.8C1577.66 1009.8 1582 1005.46 1582 1000.1C1582 994.743 1577.66 990.4 1572.3 990.4C1566.94 990.4 1562.6 994.743 1562.6 1000.1C1562.6 1005.46 1566.94 1009.8 1572.3 1009.8Z" fill="#D9DBE2"/>
<path d="M1697.3 1009.8C1702.66 1009.8 1707 1005.46 1707 1000.1C1707 994.743 1702.66 990.4 1697.3 990.4C1691.94 990.4 1687.6 994.743 1687.6 1000.1C1687.6 1005.46 1691.94 1009.8 1697.3 1009.8Z" fill="#D9DBE2"/>
<path d="M1822.3 1009.8C1827.66 1009.8 1832 1005.46 1832 1000.1C1832 994.743 1827.66 990.4 1822.3 990.4C1816.94 990.4 1812.6 994.743 1812.6 1000.1C1812.6 1005.46 1816.94 1009.8 1822.3 1009.8Z" fill="#D9DBE2"/>
<path d="M1947.4 1009.8C1952.76 1009.8 1957.1 1005.46 1957.1 1000.1C1957.1 994.743 1952.76 990.4 1947.4 990.4C1942.04 990.4 1937.7 994.743 1937.7 1000.1C1937.7 1005.46 1942.04 1009.8 1947.4 1009.8Z" fill="#D9DBE2"/>
<path d="M2072.4 1009.8C2077.76 1009.8 2082.1 1005.46 2082.1 1000.1C2082.1 994.743 2077.76 990.4 2072.4 990.4C2067.04 990.4 2062.7 994.743 2062.7 1000.1C2062.7 1005.46 2067.04 1009.8 2072.4 1009.8Z" fill="#D9DBE2"/>
<path d="M1134.8 1066.6C1140.16 1066.6 1144.5 1062.26 1144.5 1056.9C1144.5 1051.54 1140.16 1047.2 1134.8 1047.2C1129.44 1047.2 1125.1 1051.54 1125.1 1056.9C1125.1 1062.26 1129.44 1066.6 1134.8 1066.6Z" fill="#D9DBE2"/>
<path d="M1259.8 1066.6C1265.16 1066.6 1269.5 1062.26 1269.5 1056.9C1269.5 1051.54 1265.16 1047.2 1259.8 1047.2C1254.44 1047.2 1250.1 1051.54 1250.1 1056.9C1250.1 1062.26 1254.44 1066.6 1259.8 1066.6Z" fill="#D9DBE2"/>
<path d="M1384.8 1066.6C1390.16 1066.6 1394.5 1062.26 1394.5 1056.9C1394.5 1051.54 1390.16 1047.2 1384.8 1047.2C1379.44 1047.2 1375.1 1051.54 1375.1 1056.9C1375.1 1062.26 1379.44 1066.6 1384.8 1066.6Z" fill="#D9DBE2"/>
<path d="M1509.8 1066.6C1515.16 1066.6 1519.5 1062.26 1519.5 1056.9C1519.5 1051.54 1515.16 1047.2 1509.8 1047.2C1504.44 1047.2 1500.1 1051.54 1500.1 1056.9C1500.1 1062.26 1504.44 1066.6 1509.8 1066.6Z" fill="#D9DBE2"/>
<path d="M1634.8 1066.6C1640.16 1066.6 1644.5 1062.26 1644.5 1056.9C1644.5 1051.54 1640.16 1047.2 1634.8 1047.2C1629.44 1047.2 1625.1 1051.54 1625.1 1056.9C1625.1 1062.26 1629.44 1066.6 1634.8 1066.6Z" fill="#D9DBE2"/>
<path d="M1759.8 1066.6C1765.16 1066.6 1769.5 1062.26 1769.5 1056.9C1769.5 1051.54 1765.16 1047.2 1759.8 1047.2C1754.44 1047.2 1750.1 1051.54 1750.1 1056.9C1750.1 1062.26 1754.44 1066.6 1759.8 1066.6Z" fill="#D9DBE2"/>
<path d="M1884.9 1066.6C1890.26 1066.6 1894.6 1062.26 1894.6 1056.9C1894.6 1051.54 1890.26 1047.2 1884.9 1047.2C1879.54 1047.2 1875.2 1051.54 1875.2 1056.9C1875.2 1062.26 1879.54 1066.6 1884.9 1066.6Z" fill="#D9DBE2"/>
<path d="M2009.9 1066.6C2015.26 1066.6 2019.6 1062.26 2019.6 1056.9C2019.6 1051.54 2015.26 1047.2 2009.9 1047.2C2004.54 1047.2 2000.2 1051.54 2000.2 1056.9C2000.2 1062.26 2004.54 1066.6 2009.9 1066.6Z" fill="#D9DBE2"/>
<path d="M2134.9 1066.6C2140.26 1066.6 2144.6 1062.26 2144.6 1056.9C2144.6 1051.54 2140.26 1047.2 2134.9 1047.2C2129.54 1047.2 2125.2 1051.54 2125.2 1056.9C2125.2 1062.26 2129.54 1066.6 2134.9 1066.6Z" fill="#D9DBE2"/>
<path d="M1072.3 1133.6C1077.66 1133.6 1082 1129.26 1082 1123.9C1082 1118.54 1077.66 1114.2 1072.3 1114.2C1066.94 1114.2 1062.6 1118.54 1062.6 1123.9C1062.6 1129.26 1066.94 1133.6 1072.3 1133.6Z" fill="#D9DBE2"/>
<path d="M1197.3 1133.6C1202.66 1133.6 1207 1129.26 1207 1123.9C1207 1118.54 1202.66 1114.2 1197.3 1114.2C1191.94 1114.2 1187.6 1118.54 1187.6 1123.9C1187.6 1129.26 1191.94 1133.6 1197.3 1133.6Z" fill="#D9DBE2"/>
<path d="M1322.3 1133.6C1327.66 1133.6 1332 1129.26 1332 1123.9C1332 1118.54 1327.66 1114.2 1322.3 1114.2C1316.94 1114.2 1312.6 1118.54 1312.6 1123.9C1312.6 1129.26 1316.94 1133.6 1322.3 1133.6Z" fill="#D9DBE2"/>
<path d="M1447.3 1133.6C1452.66 1133.6 1457 1129.26 1457 1123.9C1457 1118.54 1452.66 1114.2 1447.3 1114.2C1441.94 1114.2 1437.6 1118.54 1437.6 1123.9C1437.6 1129.26 1441.94 1133.6 1447.3 1133.6Z" fill="#D9DBE2"/>
<path d="M1572.3 1133.6C1577.66 1133.6 1582 1129.26 1582 1123.9C1582 1118.54 1577.66 1114.2 1572.3 1114.2C1566.94 1114.2 1562.6 1118.54 1562.6 1123.9C1562.6 1129.26 1566.94 1133.6 1572.3 1133.6Z" fill="#D9DBE2"/>
<path d="M1697.3 1133.6C1702.66 1133.6 1707 1129.26 1707 1123.9C1707 1118.54 1702.66 1114.2 1697.3 1114.2C1691.94 1114.2 1687.6 1118.54 1687.6 1123.9C1687.6 1129.26 1691.94 1133.6 1697.3 1133.6Z" fill="#D9DBE2"/>
<path d="M1822.3 1133.6C1827.66 1133.6 1832 1129.26 1832 1123.9C1832 1118.54 1827.66 1114.2 1822.3 1114.2C1816.94 1114.2 1812.6 1118.54 1812.6 1123.9C1812.6 1129.26 1816.94 1133.6 1822.3 1133.6Z" fill="#D9DBE2"/>
<path d="M1947.4 1133.6C1952.76 1133.6 1957.1 1129.26 1957.1 1123.9C1957.1 1118.54 1952.76 1114.2 1947.4 1114.2C1942.04 1114.2 1937.7 1118.54 1937.7 1123.9C1937.7 1129.26 1942.04 1133.6 1947.4 1133.6Z" fill="#D9DBE2"/>
<path d="M2072.4 1133.6C2077.76 1133.6 2082.1 1129.26 2082.1 1123.9C2082.1 1118.54 2077.76 1114.2 2072.4 1114.2C2067.04 1114.2 2062.7 1118.54 2062.7 1123.9C2062.7 1129.26 2067.04 1133.6 2072.4 1133.6Z" fill="#D9DBE2"/>
<path d="M1134.8 1190.4C1140.16 1190.4 1144.5 1186.06 1144.5 1180.7C1144.5 1175.34 1140.16 1171 1134.8 1171C1129.44 1171 1125.1 1175.34 1125.1 1180.7C1125.1 1186.06 1129.44 1190.4 1134.8 1190.4Z" fill="#D9DBE2"/>
<path d="M1259.8 1190.4C1265.16 1190.4 1269.5 1186.06 1269.5 1180.7C1269.5 1175.34 1265.16 1171 1259.8 1171C1254.44 1171 1250.1 1175.34 1250.1 1180.7C1250.1 1186.06 1254.44 1190.4 1259.8 1190.4Z" fill="#D9DBE2"/>
<path d="M1384.8 1190.4C1390.16 1190.4 1394.5 1186.06 1394.5 1180.7C1394.5 1175.34 1390.16 1171 1384.8 1171C1379.44 1171 1375.1 1175.34 1375.1 1180.7C1375.1 1186.06 1379.44 1190.4 1384.8 1190.4Z" fill="#D9DBE2"/>
<path d="M1509.8 1190.4C1515.16 1190.4 1519.5 1186.06 1519.5 1180.7C1519.5 1175.34 1515.16 1171 1509.8 1171C1504.44 1171 1500.1 1175.34 1500.1 1180.7C1500.1 1186.06 1504.44 1190.4 1509.8 1190.4Z" fill="#D9DBE2"/>
<path d="M1634.8 1190.4C1640.16 1190.4 1644.5 1186.06 1644.5 1180.7C1644.5 1175.34 1640.16 1171 1634.8 1171C1629.44 1171 1625.1 1175.34 1625.1 1180.7C1625.1 1186.06 1629.44 1190.4 1634.8 1190.4Z" fill="#D9DBE2"/>
<path d="M1759.8 1190.4C1765.16 1190.4 1769.5 1186.06 1769.5 1180.7C1769.5 1175.34 1765.16 1171 1759.8 1171C1754.44 1171 1750.1 1175.34 1750.1 1180.7C1750.1 1186.06 1754.44 1190.4 1759.8 1190.4Z" fill="#D9DBE2"/>
<path d="M1884.9 1190.4C1890.26 1190.4 1894.6 1186.06 1894.6 1180.7C1894.6 1175.34 1890.26 1171 1884.9 1171C1879.54 1171 1875.2 1175.34 1875.2 1180.7C1875.2 1186.06 1879.54 1190.4 1884.9 1190.4Z" fill="#D9DBE2"/>
<path d="M2009.9 1190.4C2015.26 1190.4 2019.6 1186.06 2019.6 1180.7C2019.6 1175.34 2015.26 1171 2009.9 1171C2004.54 1171 2000.2 1175.34 2000.2 1180.7C2000.2 1186.06 2004.54 1190.4 2009.9 1190.4Z" fill="#D9DBE2"/>
<path d="M2134.9 1190.4C2140.26 1190.4 2144.6 1186.06 2144.6 1180.7C2144.6 1175.34 2140.26 1171 2134.9 1171C2129.54 1171 2125.2 1175.34 2125.2 1180.7C2125.2 1186.06 2129.54 1190.4 2134.9 1190.4Z" fill="#D9DBE2"/>
<path d="M1072.3 1257.4C1077.66 1257.4 1082 1253.06 1082 1247.7C1082 1242.34 1077.66 1238 1072.3 1238C1066.94 1238 1062.6 1242.34 1062.6 1247.7C1062.6 1253.06 1066.94 1257.4 1072.3 1257.4Z" fill="#D9DBE2"/>
<path d="M1197.3 1257.4C1202.66 1257.4 1207 1253.06 1207 1247.7C1207 1242.34 1202.66 1238 1197.3 1238C1191.94 1238 1187.6 1242.34 1187.6 1247.7C1187.6 1253.06 1191.94 1257.4 1197.3 1257.4Z" fill="#D9DBE2"/>
<path d="M1322.3 1257.4C1327.66 1257.4 1332 1253.06 1332 1247.7C1332 1242.34 1327.66 1238 1322.3 1238C1316.94 1238 1312.6 1242.34 1312.6 1247.7C1312.6 1253.06 1316.94 1257.4 1322.3 1257.4Z" fill="#D9DBE2"/>
<path d="M1447.3 1257.4C1452.66 1257.4 1457 1253.06 1457 1247.7C1457 1242.34 1452.66 1238 1447.3 1238C1441.94 1238 1437.6 1242.34 1437.6 1247.7C1437.6 1253.06 1441.94 1257.4 1447.3 1257.4Z" fill="#D9DBE2"/>
<path d="M1572.3 1257.4C1577.66 1257.4 1582 1253.06 1582 1247.7C1582 1242.34 1577.66 1238 1572.3 1238C1566.94 1238 1562.6 1242.34 1562.6 1247.7C1562.6 1253.06 1566.94 1257.4 1572.3 1257.4Z" fill="#D9DBE2"/>
<path d="M1697.3 1257.4C1702.66 1257.4 1707 1253.06 1707 1247.7C1707 1242.34 1702.66 1238 1697.3 1238C1691.94 1238 1687.6 1242.34 1687.6 1247.7C1687.6 1253.06 1691.94 1257.4 1697.3 1257.4Z" fill="#D9DBE2"/>
<path d="M1822.3 1257.4C1827.66 1257.4 1832 1253.06 1832 1247.7C1832 1242.34 1827.66 1238 1822.3 1238C1816.94 1238 1812.6 1242.34 1812.6 1247.7C1812.6 1253.06 1816.94 1257.4 1822.3 1257.4Z" fill="#D9DBE2"/>
<path d="M1947.4 1257.4C1952.76 1257.4 1957.1 1253.06 1957.1 1247.7C1957.1 1242.34 1952.76 1238 1947.4 1238C1942.04 1238 1937.7 1242.34 1937.7 1247.7C1937.7 1253.06 1942.04 1257.4 1947.4 1257.4Z" fill="#D9DBE2"/>
<path d="M2072.4 1257.4C2077.76 1257.4 2082.1 1253.06 2082.1 1247.7C2082.1 1242.34 2077.76 1238 2072.4 1238C2067.04 1238 2062.7 1242.34 2062.7 1247.7C2062.7 1253.06 2067.04 1257.4 2072.4 1257.4Z" fill="#D9DBE2"/>
<path d="M1134.8 1314.2C1140.16 1314.2 1144.5 1309.86 1144.5 1304.5C1144.5 1299.14 1140.16 1294.8 1134.8 1294.8C1129.44 1294.8 1125.1 1299.14 1125.1 1304.5C1125.1 1309.86 1129.44 1314.2 1134.8 1314.2Z" fill="#D9DBE2"/>
<path d="M1259.8 1314.2C1265.16 1314.2 1269.5 1309.86 1269.5 1304.5C1269.5 1299.14 1265.16 1294.8 1259.8 1294.8C1254.44 1294.8 1250.1 1299.14 1250.1 1304.5C1250.1 1309.86 1254.44 1314.2 1259.8 1314.2Z" fill="#D9DBE2"/>
<path d="M1384.8 1314.2C1390.16 1314.2 1394.5 1309.86 1394.5 1304.5C1394.5 1299.14 1390.16 1294.8 1384.8 1294.8C1379.44 1294.8 1375.1 1299.14 1375.1 1304.5C1375.1 1309.86 1379.44 1314.2 1384.8 1314.2Z" fill="#D9DBE2"/>
<path d="M1509.8 1314.2C1515.16 1314.2 1519.5 1309.86 1519.5 1304.5C1519.5 1299.14 1515.16 1294.8 1509.8 1294.8C1504.44 1294.8 1500.1 1299.14 1500.1 1304.5C1500.1 1309.86 1504.44 1314.2 1509.8 1314.2Z" fill="#D9DBE2"/>
<path d="M1634.8 1314.2C1640.16 1314.2 1644.5 1309.86 1644.5 1304.5C1644.5 1299.14 1640.16 1294.8 1634.8 1294.8C1629.44 1294.8 1625.1 1299.14 1625.1 1304.5C1625.1 1309.86 1629.44 1314.2 1634.8 1314.2Z" fill="#D9DBE2"/>
<path d="M1759.8 1314.2C1765.16 1314.2 1769.5 1309.86 1769.5 1304.5C1769.5 1299.14 1765.16 1294.8 1759.8 1294.8C1754.44 1294.8 1750.1 1299.14 1750.1 1304.5C1750.1 1309.86 1754.44 1314.2 1759.8 1314.2Z" fill="#D9DBE2"/>
<path d="M1884.9 1314.2C1890.26 1314.2 1894.6 1309.86 1894.6 1304.5C1894.6 1299.14 1890.26 1294.8 1884.9 1294.8C1879.54 1294.8 1875.2 1299.14 1875.2 1304.5C1875.2 1309.86 1879.54 1314.2 1884.9 1314.2Z" fill="#D9DBE2"/>
<path d="M2009.9 1314.2C2015.26 1314.2 2019.6 1309.86 2019.6 1304.5C2019.6 1299.14 2015.26 1294.8 2009.9 1294.8C2004.54 1294.8 2000.2 1299.14 2000.2 1304.5C2000.2 1309.86 2004.54 1314.2 2009.9 1314.2Z" fill="#D9DBE2"/>
<path d="M2134.9 1314.2C2140.26 1314.2 2144.6 1309.86 2144.6 1304.5C2144.6 1299.14 2140.26 1294.8 2134.9 1294.8C2129.54 1294.8 2125.2 1299.14 2125.2 1304.5C2125.2 1309.86 2129.54 1314.2 2134.9 1314.2Z" fill="#D9DBE2"/>
<path d="M1072.3 1381.2C1077.66 1381.2 1082 1376.86 1082 1371.5C1082 1366.14 1077.66 1361.8 1072.3 1361.8C1066.94 1361.8 1062.6 1366.14 1062.6 1371.5C1062.6 1376.86 1066.94 1381.2 1072.3 1381.2Z" fill="#D9DBE2"/>
<path d="M1197.3 1381.2C1202.66 1381.2 1207 1376.86 1207 1371.5C1207 1366.14 1202.66 1361.8 1197.3 1361.8C1191.94 1361.8 1187.6 1366.14 1187.6 1371.5C1187.6 1376.86 1191.94 1381.2 1197.3 1381.2Z" fill="#D9DBE2"/>
<path d="M1322.3 1381.2C1327.66 1381.2 1332 1376.86 1332 1371.5C1332 1366.14 1327.66 1361.8 1322.3 1361.8C1316.94 1361.8 1312.6 1366.14 1312.6 1371.5C1312.6 1376.86 1316.94 1381.2 1322.3 1381.2Z" fill="#D9DBE2"/>
<path d="M1447.3 1381.2C1452.66 1381.2 1457 1376.86 1457 1371.5C1457 1366.14 1452.66 1361.8 1447.3 1361.8C1441.94 1361.8 1437.6 1366.14 1437.6 1371.5C1437.6 1376.86 1441.94 1381.2 1447.3 1381.2Z" fill="#D9DBE2"/>
<path d="M1572.3 1381.2C1577.66 1381.2 1582 1376.86 1582 1371.5C1582 1366.14 1577.66 1361.8 1572.3 1361.8C1566.94 1361.8 1562.6 1366.14 1562.6 1371.5C1562.6 1376.86 1566.94 1381.2 1572.3 1381.2Z" fill="#D9DBE2"/>
<path d="M1697.3 1381.2C1702.66 1381.2 1707 1376.86 1707 1371.5C1707 1366.14 1702.66 1361.8 1697.3 1361.8C1691.94 1361.8 1687.6 1366.14 1687.6 1371.5C1687.6 1376.86 1691.94 1381.2 1697.3 1381.2Z" fill="#D9DBE2"/>
<path d="M1822.3 1381.2C1827.66 1381.2 1832 1376.86 1832 1371.5C1832 1366.14 1827.66 1361.8 1822.3 1361.8C1816.94 1361.8 1812.6 1366.14 1812.6 1371.5C1812.6 1376.86 1816.94 1381.2 1822.3 1381.2Z" fill="#D9DBE2"/>
<path d="M1947.4 1381.2C1952.76 1381.2 1957.1 1376.86 1957.1 1371.5C1957.1 1366.14 1952.76 1361.8 1947.4 1361.8C1942.04 1361.8 1937.7 1366.14 1937.7 1371.5C1937.7 1376.86 1942.04 1381.2 1947.4 1381.2Z" fill="#D9DBE2"/>
<path d="M2072.4 1381.2C2077.76 1381.2 2082.1 1376.86 2082.1 1371.5C2082.1 1366.14 2077.76 1361.8 2072.4 1361.8C2067.04 1361.8 2062.7 1366.14 2062.7 1371.5C2062.7 1376.86 2067.04 1381.2 2072.4 1381.2Z" fill="#D9DBE2"/>
<path d="M1134.8 1438C1140.16 1438 1144.5 1433.66 1144.5 1428.3C1144.5 1422.94 1140.16 1418.6 1134.8 1418.6C1129.44 1418.6 1125.1 1422.94 1125.1 1428.3C1125.1 1433.66 1129.44 1438 1134.8 1438Z" fill="#D9DBE2"/>
<path d="M1259.8 1438C1265.16 1438 1269.5 1433.66 1269.5 1428.3C1269.5 1422.94 1265.16 1418.6 1259.8 1418.6C1254.44 1418.6 1250.1 1422.94 1250.1 1428.3C1250.1 1433.66 1254.44 1438 1259.8 1438Z" fill="#D9DBE2"/>
<path d="M1384.8 1438C1390.16 1438 1394.5 1433.66 1394.5 1428.3C1394.5 1422.94 1390.16 1418.6 1384.8 1418.6C1379.44 1418.6 1375.1 1422.94 1375.1 1428.3C1375.1 1433.66 1379.44 1438 1384.8 1438Z" fill="#D9DBE2"/>
<path d="M1509.8 1438C1515.16 1438 1519.5 1433.66 1519.5 1428.3C1519.5 1422.94 1515.16 1418.6 1509.8 1418.6C1504.44 1418.6 1500.1 1422.94 1500.1 1428.3C1500.1 1433.66 1504.44 1438 1509.8 1438Z" fill="#D9DBE2"/>
<path d="M1634.8 1438C1640.16 1438 1644.5 1433.66 1644.5 1428.3C1644.5 1422.94 1640.16 1418.6 1634.8 1418.6C1629.44 1418.6 1625.1 1422.94 1625.1 1428.3C1625.1 1433.66 1629.44 1438 1634.8 1438Z" fill="#D9DBE2"/>
<path d="M1759.8 1438C1765.16 1438 1769.5 1433.66 1769.5 1428.3C1769.5 1422.94 1765.16 1418.6 1759.8 1418.6C1754.44 1418.6 1750.1 1422.94 1750.1 1428.3C1750.1 1433.66 1754.44 1438 1759.8 1438Z" fill="#D9DBE2"/>
<path d="M1884.9 1438C1890.26 1438 1894.6 1433.66 1894.6 1428.3C1894.6 1422.94 1890.26 1418.6 1884.9 1418.6C1879.54 1418.6 1875.2 1422.94 1875.2 1428.3C1875.2 1433.66 1879.54 1438 1884.9 1438Z" fill="#D9DBE2"/>
<path d="M2009.9 1438C2015.26 1438 2019.6 1433.66 2019.6 1428.3C2019.6 1422.94 2015.26 1418.6 2009.9 1418.6C2004.54 1418.6 2000.2 1422.94 2000.2 1428.3C2000.2 1433.66 2004.54 1438 2009.9 1438Z" fill="#D9DBE2"/>
<path d="M2134.9 1438C2140.26 1438 2144.6 1433.66 2144.6 1428.3C2144.6 1422.94 2140.26 1418.6 2134.9 1418.6C2129.54 1418.6 2125.2 1422.94 2125.2 1428.3C2125.2 1433.66 2129.54 1438 2134.9 1438Z" fill="#D9DBE2"/>
<path d="M72.2 19.4C77.5572 19.4 81.9 15.0572 81.9 9.7C81.9 4.34284 77.5572 0 72.2 0C66.8428 0 62.5 4.34284 62.5 9.7C62.5 15.0572 66.8428 19.4 72.2 19.4Z" fill="#D9DBE2"/>
<path d="M197.2 19.4C202.557 19.4 206.9 15.0572 206.9 9.7C206.9 4.34284 202.557 0 197.2 0C191.843 0 187.5 4.34284 187.5 9.7C187.5 15.0572 191.843 19.4 197.2 19.4Z" fill="#D9DBE2"/>
<path d="M322.3 19.4C327.657 19.4 332 15.0572 332 9.7C332 4.34284 327.657 0 322.3 0C316.943 0 312.6 4.34284 312.6 9.7C312.6 15.0572 316.943 19.4 322.3 19.4Z" fill="#D9DBE2"/>
<path d="M447.3 19.4C452.657 19.4 457 15.0572 457 9.7C457 4.34284 452.657 0 447.3 0C441.943 0 437.6 4.34284 437.6 9.7C437.6 15.0572 441.943 19.4 447.3 19.4Z" fill="#D9DBE2"/>
<path d="M572.3 19.4C577.657 19.4 582 15.0572 582 9.7C582 4.34284 577.657 0 572.3 0C566.943 0 562.6 4.34284 562.6 9.7C562.6 15.0572 566.943 19.4 572.3 19.4Z" fill="#D9DBE2"/>
<path d="M697.3 19.4C702.657 19.4 707 15.0572 707 9.7C707 4.34284 702.657 0 697.3 0C691.943 0 687.6 4.34284 687.6 9.7C687.6 15.0572 691.943 19.4 697.3 19.4Z" fill="#D9DBE2"/>
<path d="M822.3 19.4C827.657 19.4 832 15.0572 832 9.7C832 4.34284 827.657 0 822.3 0C816.943 0 812.6 4.34284 812.6 9.7C812.6 15.0572 816.943 19.4 822.3 19.4Z" fill="#D9DBE2"/>
<path d="M947.3 19.4C952.657 19.4 957 15.0572 957 9.7C957 4.34284 952.657 0 947.3 0C941.943 0 937.6 4.34284 937.6 9.7C937.6 15.0572 941.943 19.4 947.3 19.4Z" fill="#D9DBE2"/>
<path d="M9.7 76.2C15.0572 76.2 19.4 71.8572 19.4 66.5C19.4 61.1429 15.0572 56.8 9.7 56.8C4.34284 56.8 0 61.1429 0 66.5C0 71.8572 4.34284 76.2 9.7 76.2Z" fill="#D9DBE2"/>
<path d="M134.7 76.2C140.057 76.2 144.4 71.8572 144.4 66.5C144.4 61.1429 140.057 56.8 134.7 56.8C129.343 56.8 125 61.1429 125 66.5C125 71.8572 129.343 76.2 134.7 76.2Z" fill="#D9DBE2"/>
<path d="M259.7 76.2C265.057 76.2 269.4 71.8572 269.4 66.5C269.4 61.1429 265.057 56.8 259.7 56.8C254.343 56.8 250 61.1429 250 66.5C250 71.8572 254.343 76.2 259.7 76.2Z" fill="#D9DBE2"/>
<path d="M384.8 76.2C390.157 76.2 394.5 71.8572 394.5 66.5C394.5 61.1429 390.157 56.8 384.8 56.8C379.443 56.8 375.1 61.1429 375.1 66.5C375.1 71.8572 379.443 76.2 384.8 76.2Z" fill="#D9DBE2"/>
<path d="M509.8 76.2C515.157 76.2 519.5 71.8572 519.5 66.5C519.5 61.1429 515.157 56.8 509.8 56.8C504.443 56.8 500.1 61.1429 500.1 66.5C500.1 71.8572 504.443 76.2 509.8 76.2Z" fill="#D9DBE2"/>
<path d="M634.8 76.2C640.157 76.2 644.5 71.8572 644.5 66.5C644.5 61.1429 640.157 56.8 634.8 56.8C629.443 56.8 625.1 61.1429 625.1 66.5C625.1 71.8572 629.443 76.2 634.8 76.2Z" fill="#D9DBE2"/>
<path d="M759.8 76.2C765.157 76.2 769.5 71.8572 769.5 66.5C769.5 61.1429 765.157 56.8 759.8 56.8C754.443 56.8 750.1 61.1429 750.1 66.5C750.1 71.8572 754.443 76.2 759.8 76.2Z" fill="#D9DBE2"/>
<path d="M884.8 76.2C890.157 76.2 894.5 71.8572 894.5 66.5C894.5 61.1429 890.157 56.8 884.8 56.8C879.443 56.8 875.1 61.1429 875.1 66.5C875.1 71.8572 879.443 76.2 884.8 76.2Z" fill="#D9DBE2"/>
<path d="M1009.8 76.2C1015.16 76.2 1019.5 71.8572 1019.5 66.5C1019.5 61.1429 1015.16 56.8 1009.8 56.8C1004.44 56.8 1000.1 61.1429 1000.1 66.5C1000.1 71.8572 1004.44 76.2 1009.8 76.2Z" fill="#D9DBE2"/>
<path d="M72.2 143.2C77.5572 143.2 81.9 138.857 81.9 133.5C81.9 128.143 77.5572 123.8 72.2 123.8C66.8428 123.8 62.5 128.143 62.5 133.5C62.5 138.857 66.8428 143.2 72.2 143.2Z" fill="#D9DBE2"/>
<path d="M197.2 143.2C202.557 143.2 206.9 138.857 206.9 133.5C206.9 128.143 202.557 123.8 197.2 123.8C191.843 123.8 187.5 128.143 187.5 133.5C187.5 138.857 191.843 143.2 197.2 143.2Z" fill="#D9DBE2"/>
<path d="M322.3 143.2C327.657 143.2 332 138.857 332 133.5C332 128.143 327.657 123.8 322.3 123.8C316.943 123.8 312.6 128.143 312.6 133.5C312.6 138.857 316.943 143.2 322.3 143.2Z" fill="#D9DBE2"/>
<path d="M447.3 143.2C452.657 143.2 457 138.857 457 133.5C457 128.143 452.657 123.8 447.3 123.8C441.943 123.8 437.6 128.143 437.6 133.5C437.6 138.857 441.943 143.2 447.3 143.2Z" fill="#D9DBE2"/>
<path d="M572.3 143.2C577.657 143.2 582 138.857 582 133.5C582 128.143 577.657 123.8 572.3 123.8C566.943 123.8 562.6 128.143 562.6 133.5C562.6 138.857 566.943 143.2 572.3 143.2Z" fill="#D9DBE2"/>
<path d="M697.3 143.2C702.657 143.2 707 138.857 707 133.5C707 128.143 702.657 123.8 697.3 123.8C691.943 123.8 687.6 128.143 687.6 133.5C687.6 138.857 691.943 143.2 697.3 143.2Z" fill="#D9DBE2"/>
<path d="M822.3 143.2C827.657 143.2 832 138.857 832 133.5C832 128.143 827.657 123.8 822.3 123.8C816.943 123.8 812.6 128.143 812.6 133.5C812.6 138.857 816.943 143.2 822.3 143.2Z" fill="#D9DBE2"/>
<path d="M947.3 143.2C952.657 143.2 957 138.857 957 133.5C957 128.143 952.657 123.8 947.3 123.8C941.943 123.8 937.6 128.143 937.6 133.5C937.6 138.857 941.943 143.2 947.3 143.2Z" fill="#D9DBE2"/>
<path d="M9.7 200C15.0572 200 19.4 195.657 19.4 190.3C19.4 184.943 15.0572 180.6 9.7 180.6C4.34284 180.6 0 184.943 0 190.3C0 195.657 4.34284 200 9.7 200Z" fill="#D9DBE2"/>
<path d="M134.7 200C140.057 200 144.4 195.657 144.4 190.3C144.4 184.943 140.057 180.6 134.7 180.6C129.343 180.6 125 184.943 125 190.3C125 195.657 129.343 200 134.7 200Z" fill="#D9DBE2"/>
<path d="M259.7 200C265.057 200 269.4 195.657 269.4 190.3C269.4 184.943 265.057 180.6 259.7 180.6C254.343 180.6 250 184.943 250 190.3C250 195.657 254.343 200 259.7 200Z" fill="#D9DBE2"/>
<path d="M384.8 200C390.157 200 394.5 195.657 394.5 190.3C394.5 184.943 390.157 180.6 384.8 180.6C379.443 180.6 375.1 184.943 375.1 190.3C375.1 195.657 379.443 200 384.8 200Z" fill="#D9DBE2"/>
<path d="M509.8 200C515.157 200 519.5 195.657 519.5 190.3C519.5 184.943 515.157 180.6 509.8 180.6C504.443 180.6 500.1 184.943 500.1 190.3C500.1 195.657 504.443 200 509.8 200Z" fill="#D9DBE2"/>
<path d="M634.8 200C640.157 200 644.5 195.657 644.5 190.3C644.5 184.943 640.157 180.6 634.8 180.6C629.443 180.6 625.1 184.943 625.1 190.3C625.1 195.657 629.443 200 634.8 200Z" fill="#D9DBE2"/>
<path d="M759.8 200C765.157 200 769.5 195.657 769.5 190.3C769.5 184.943 765.157 180.6 759.8 180.6C754.443 180.6 750.1 184.943 750.1 190.3C750.1 195.657 754.443 200 759.8 200Z" fill="#D9DBE2"/>
<path d="M884.8 200C890.157 200 894.5 195.657 894.5 190.3C894.5 184.943 890.157 180.6 884.8 180.6C879.443 180.6 875.1 184.943 875.1 190.3C875.1 195.657 879.443 200 884.8 200Z" fill="#D9DBE2"/>
<path d="M1009.8 200C1015.16 200 1019.5 195.657 1019.5 190.3C1019.5 184.943 1015.16 180.6 1009.8 180.6C1004.44 180.6 1000.1 184.943 1000.1 190.3C1000.1 195.657 1004.44 200 1009.8 200Z" fill="#D9DBE2"/>
<path d="M72.2 267C77.5572 267 81.9 262.657 81.9 257.3C81.9 251.943 77.5572 247.6 72.2 247.6C66.8428 247.6 62.5 251.943 62.5 257.3C62.5 262.657 66.8428 267 72.2 267Z" fill="#D9DBE2"/>
<path d="M197.2 267C202.557 267 206.9 262.657 206.9 257.3C206.9 251.943 202.557 247.6 197.2 247.6C191.843 247.6 187.5 251.943 187.5 257.3C187.5 262.657 191.843 267 197.2 267Z" fill="#D9DBE2"/>
<path d="M322.3 267C327.657 267 332 262.657 332 257.3C332 251.943 327.657 247.6 322.3 247.6C316.943 247.6 312.6 251.943 312.6 257.3C312.6 262.657 316.943 267 322.3 267Z" fill="#D9DBE2"/>
<path d="M447.3 267C452.657 267 457 262.657 457 257.3C457 251.943 452.657 247.6 447.3 247.6C441.943 247.6 437.6 251.943 437.6 257.3C437.6 262.657 441.943 267 447.3 267Z" fill="#D9DBE2"/>
<path d="M572.3 267C577.657 267 582 262.657 582 257.3C582 251.943 577.657 247.6 572.3 247.6C566.943 247.6 562.6 251.943 562.6 257.3C562.6 262.657 566.943 267 572.3 267Z" fill="#D9DBE2"/>
<path d="M697.3 267C702.657 267 707 262.657 707 257.3C707 251.943 702.657 247.6 697.3 247.6C691.943 247.6 687.6 251.943 687.6 257.3C687.6 262.657 691.943 267 697.3 267Z" fill="#D9DBE2"/>
<path d="M822.3 267C827.657 267 832 262.657 832 257.3C832 251.943 827.657 247.6 822.3 247.6C816.943 247.6 812.6 251.943 812.6 257.3C812.6 262.657 816.943 267 822.3 267Z" fill="#D9DBE2"/>
<path d="M947.3 267C952.657 267 957 262.657 957 257.3C957 251.943 952.657 247.6 947.3 247.6C941.943 247.6 937.6 251.943 937.6 257.3C937.6 262.657 941.943 267 947.3 267Z" fill="#D9DBE2"/>
<path d="M9.7 323.8C15.0572 323.8 19.4 319.457 19.4 314.1C19.4 308.743 15.0572 304.4 9.7 304.4C4.34284 304.4 0 308.743 0 314.1C0 319.457 4.34284 323.8 9.7 323.8Z" fill="#D9DBE2"/>
<path d="M134.7 323.8C140.057 323.8 144.4 319.457 144.4 314.1C144.4 308.743 140.057 304.4 134.7 304.4C129.343 304.4 125 308.743 125 314.1C125 319.457 129.343 323.8 134.7 323.8Z" fill="#D9DBE2"/>
<path d="M259.7 323.8C265.057 323.8 269.4 319.457 269.4 314.1C269.4 308.743 265.057 304.4 259.7 304.4C254.343 304.4 250 308.743 250 314.1C250 319.457 254.343 323.8 259.7 323.8Z" fill="#D9DBE2"/>
<path d="M384.8 323.8C390.157 323.8 394.5 319.457 394.5 314.1C394.5 308.743 390.157 304.4 384.8 304.4C379.443 304.4 375.1 308.743 375.1 314.1C375.1 319.457 379.443 323.8 384.8 323.8Z" fill="#D9DBE2"/>
<path d="M509.8 323.8C515.157 323.8 519.5 319.457 519.5 314.1C519.5 308.743 515.157 304.4 509.8 304.4C504.443 304.4 500.1 308.743 500.1 314.1C500.1 319.457 504.443 323.8 509.8 323.8Z" fill="#D9DBE2"/>
<path d="M634.8 323.8C640.157 323.8 644.5 319.457 644.5 314.1C644.5 308.743 640.157 304.4 634.8 304.4C629.443 304.4 625.1 308.743 625.1 314.1C625.1 319.457 629.443 323.8 634.8 323.8Z" fill="#D9DBE2"/>
<path d="M759.8 323.8C765.157 323.8 769.5 319.457 769.5 314.1C769.5 308.743 765.157 304.4 759.8 304.4C754.443 304.4 750.1 308.743 750.1 314.1C750.1 319.457 754.443 323.8 759.8 323.8Z" fill="#D9DBE2"/>
<path d="M884.8 323.8C890.157 323.8 894.5 319.457 894.5 314.1C894.5 308.743 890.157 304.4 884.8 304.4C879.443 304.4 875.1 308.743 875.1 314.1C875.1 319.457 879.443 323.8 884.8 323.8Z" fill="#D9DBE2"/>
<path d="M1009.8 323.8C1015.16 323.8 1019.5 319.457 1019.5 314.1C1019.5 308.743 1015.16 304.4 1009.8 304.4C1004.44 304.4 1000.1 308.743 1000.1 314.1C1000.1 319.457 1004.44 323.8 1009.8 323.8Z" fill="#D9DBE2"/>
<path d="M72.2 390.8C77.5572 390.8 81.9 386.457 81.9 381.1C81.9 375.743 77.5572 371.4 72.2 371.4C66.8428 371.4 62.5 375.743 62.5 381.1C62.5 386.457 66.8428 390.8 72.2 390.8Z" fill="#D9DBE2"/>
<path d="M197.2 390.8C202.557 390.8 206.9 386.457 206.9 381.1C206.9 375.743 202.557 371.4 197.2 371.4C191.843 371.4 187.5 375.743 187.5 381.1C187.5 386.457 191.843 390.8 197.2 390.8Z" fill="#D9DBE2"/>
<path d="M322.3 390.8C327.657 390.8 332 386.457 332 381.1C332 375.743 327.657 371.4 322.3 371.4C316.943 371.4 312.6 375.743 312.6 381.1C312.6 386.457 316.943 390.8 322.3 390.8Z" fill="#D9DBE2"/>
<path d="M447.3 390.8C452.657 390.8 457 386.457 457 381.1C457 375.743 452.657 371.4 447.3 371.4C441.943 371.4 437.6 375.743 437.6 381.1C437.6 386.457 441.943 390.8 447.3 390.8Z" fill="#D9DBE2"/>
<path d="M572.3 390.8C577.657 390.8 582 386.457 582 381.1C582 375.743 577.657 371.4 572.3 371.4C566.943 371.4 562.6 375.743 562.6 381.1C562.6 386.457 566.943 390.8 572.3 390.8Z" fill="#D9DBE2"/>
<path d="M697.3 390.8C702.657 390.8 707 386.457 707 381.1C707 375.743 702.657 371.4 697.3 371.4C691.943 371.4 687.6 375.743 687.6 381.1C687.6 386.457 691.943 390.8 697.3 390.8Z" fill="#D9DBE2"/>
<path d="M822.3 390.8C827.657 390.8 832 386.457 832 381.1C832 375.743 827.657 371.4 822.3 371.4C816.943 371.4 812.6 375.743 812.6 381.1C812.6 386.457 816.943 390.8 822.3 390.8Z" fill="#D9DBE2"/>
<path d="M947.3 390.8C952.657 390.8 957 386.457 957 381.1C957 375.743 952.657 371.4 947.3 371.4C941.943 371.4 937.6 375.743 937.6 381.1C937.6 386.457 941.943 390.8 947.3 390.8Z" fill="#D9DBE2"/>
<path d="M9.7 447.6C15.0572 447.6 19.4 443.257 19.4 437.9C19.4 432.543 15.0572 428.2 9.7 428.2C4.34284 428.2 0 432.543 0 437.9C0 443.257 4.34284 447.6 9.7 447.6Z" fill="#D9DBE2"/>
<path d="M134.7 447.6C140.057 447.6 144.4 443.257 144.4 437.9C144.4 432.543 140.057 428.2 134.7 428.2C129.343 428.2 125 432.543 125 437.9C125 443.257 129.343 447.6 134.7 447.6Z" fill="#D9DBE2"/>
<path d="M259.7 447.6C265.057 447.6 269.4 443.257 269.4 437.9C269.4 432.543 265.057 428.2 259.7 428.2C254.343 428.2 250 432.543 250 437.9C250 443.257 254.343 447.6 259.7 447.6Z" fill="#D9DBE2"/>
<path d="M384.8 447.6C390.157 447.6 394.5 443.257 394.5 437.9C394.5 432.543 390.157 428.2 384.8 428.2C379.443 428.2 375.1 432.543 375.1 437.9C375.1 443.257 379.443 447.6 384.8 447.6Z" fill="#D9DBE2"/>
<path d="M509.8 447.6C515.157 447.6 519.5 443.257 519.5 437.9C519.5 432.543 515.157 428.2 509.8 428.2C504.443 428.2 500.1 432.543 500.1 437.9C500.1 443.257 504.443 447.6 509.8 447.6Z" fill="#D9DBE2"/>
<path d="M634.8 447.6C640.157 447.6 644.5 443.257 644.5 437.9C644.5 432.543 640.157 428.2 634.8 428.2C629.443 428.2 625.1 432.543 625.1 437.9C625.1 443.257 629.443 447.6 634.8 447.6Z" fill="#D9DBE2"/>
<path d="M759.8 447.6C765.157 447.6 769.5 443.257 769.5 437.9C769.5 432.543 765.157 428.2 759.8 428.2C754.443 428.2 750.1 432.543 750.1 437.9C750.1 443.257 754.443 447.6 759.8 447.6Z" fill="#D9DBE2"/>
<path d="M884.8 447.6C890.157 447.6 894.5 443.257 894.5 437.9C894.5 432.543 890.157 428.2 884.8 428.2C879.443 428.2 875.1 432.543 875.1 437.9C875.1 443.257 879.443 447.6 884.8 447.6Z" fill="#D9DBE2"/>
<path d="M1009.8 447.6C1015.16 447.6 1019.5 443.257 1019.5 437.9C1019.5 432.543 1015.16 428.2 1009.8 428.2C1004.44 428.2 1000.1 432.543 1000.1 437.9C1000.1 443.257 1004.44 447.6 1009.8 447.6Z" fill="#D9DBE2"/>
<path d="M72.2 514.6C77.5572 514.6 81.9 510.257 81.9 504.9C81.9 499.543 77.5572 495.2 72.2 495.2C66.8428 495.2 62.5 499.543 62.5 504.9C62.5 510.257 66.8428 514.6 72.2 514.6Z" fill="#D9DBE2"/>
<path d="M197.2 514.6C202.557 514.6 206.9 510.257 206.9 504.9C206.9 499.543 202.557 495.2 197.2 495.2C191.843 495.2 187.5 499.543 187.5 504.9C187.5 510.257 191.843 514.6 197.2 514.6Z" fill="#D9DBE2"/>
<path d="M322.3 514.6C327.657 514.6 332 510.257 332 504.9C332 499.543 327.657 495.2 322.3 495.2C316.943 495.2 312.6 499.543 312.6 504.9C312.6 510.257 316.943 514.6 322.3 514.6Z" fill="#D9DBE2"/>
<path d="M447.3 514.6C452.657 514.6 457 510.257 457 504.9C457 499.543 452.657 495.2 447.3 495.2C441.943 495.2 437.6 499.543 437.6 504.9C437.6 510.257 441.943 514.6 447.3 514.6Z" fill="#D9DBE2"/>
<path d="M572.3 514.6C577.657 514.6 582 510.257 582 504.9C582 499.543 577.657 495.2 572.3 495.2C566.943 495.2 562.6 499.543 562.6 504.9C562.6 510.257 566.943 514.6 572.3 514.6Z" fill="#D9DBE2"/>
<path d="M697.3 514.6C702.657 514.6 707 510.257 707 504.9C707 499.543 702.657 495.2 697.3 495.2C691.943 495.2 687.6 499.543 687.6 504.9C687.6 510.257 691.943 514.6 697.3 514.6Z" fill="#D9DBE2"/>
<path d="M822.3 514.6C827.657 514.6 832 510.257 832 504.9C832 499.543 827.657 495.2 822.3 495.2C816.943 495.2 812.6 499.543 812.6 504.9C812.6 510.257 816.943 514.6 822.3 514.6Z" fill="#D9DBE2"/>
<path d="M947.3 514.6C952.657 514.6 957 510.257 957 504.9C957 499.543 952.657 495.2 947.3 495.2C941.943 495.2 937.6 499.543 937.6 504.9C937.6 510.257 941.943 514.6 947.3 514.6Z" fill="#D9DBE2"/>
<path d="M9.7 571.4C15.0572 571.4 19.4 567.057 19.4 561.7C19.4 556.343 15.0572 552 9.7 552C4.34284 552 0 556.343 0 561.7C0 567.057 4.34284 571.4 9.7 571.4Z" fill="#D9DBE2"/>
<path d="M134.7 571.4C140.057 571.4 144.4 567.057 144.4 561.7C144.4 556.343 140.057 552 134.7 552C129.343 552 125 556.343 125 561.7C125 567.057 129.343 571.4 134.7 571.4Z" fill="#D9DBE2"/>
<path d="M259.7 571.4C265.057 571.4 269.4 567.057 269.4 561.7C269.4 556.343 265.057 552 259.7 552C254.343 552 250 556.343 250 561.7C250 567.057 254.343 571.4 259.7 571.4Z" fill="#D9DBE2"/>
<path d="M384.8 571.4C390.157 571.4 394.5 567.057 394.5 561.7C394.5 556.343 390.157 552 384.8 552C379.443 552 375.1 556.343 375.1 561.7C375.1 567.057 379.443 571.4 384.8 571.4Z" fill="#D9DBE2"/>
<path d="M509.8 571.4C515.157 571.4 519.5 567.057 519.5 561.7C519.5 556.343 515.157 552 509.8 552C504.443 552 500.1 556.343 500.1 561.7C500.1 567.057 504.443 571.4 509.8 571.4Z" fill="#D9DBE2"/>
<path d="M634.8 571.4C640.157 571.4 644.5 567.057 644.5 561.7C644.5 556.343 640.157 552 634.8 552C629.443 552 625.1 556.343 625.1 561.7C625.1 567.057 629.443 571.4 634.8 571.4Z" fill="#D9DBE2"/>
<path d="M759.8 571.4C765.157 571.4 769.5 567.057 769.5 561.7C769.5 556.343 765.157 552 759.8 552C754.443 552 750.1 556.343 750.1 561.7C750.1 567.057 754.443 571.4 759.8 571.4Z" fill="#D9DBE2"/>
<path d="M884.8 571.4C890.157 571.4 894.5 567.057 894.5 561.7C894.5 556.343 890.157 552 884.8 552C879.443 552 875.1 556.343 875.1 561.7C875.1 567.057 879.443 571.4 884.8 571.4Z" fill="#D9DBE2"/>
<path d="M1009.8 571.4C1015.16 571.4 1019.5 567.057 1019.5 561.7C1019.5 556.343 1015.16 552 1009.8 552C1004.44 552 1000.1 556.343 1000.1 561.7C1000.1 567.057 1004.44 571.4 1009.8 571.4Z" fill="#D9DBE2"/>
<path d="M72.2 638.4C77.5572 638.4 81.9 634.057 81.9 628.7C81.9 623.343 77.5572 619 72.2 619C66.8428 619 62.5 623.343 62.5 628.7C62.5 634.057 66.8428 638.4 72.2 638.4Z" fill="#D9DBE2"/>
<path d="M197.2 638.4C202.557 638.4 206.9 634.057 206.9 628.7C206.9 623.343 202.557 619 197.2 619C191.843 619 187.5 623.343 187.5 628.7C187.5 634.057 191.843 638.4 197.2 638.4Z" fill="#D9DBE2"/>
<path d="M322.3 638.4C327.657 638.4 332 634.057 332 628.7C332 623.343 327.657 619 322.3 619C316.943 619 312.6 623.343 312.6 628.7C312.6 634.057 316.943 638.4 322.3 638.4Z" fill="#D9DBE2"/>
<path d="M447.3 638.4C452.657 638.4 457 634.057 457 628.7C457 623.343 452.657 619 447.3 619C441.943 619 437.6 623.343 437.6 628.7C437.6 634.057 441.943 638.4 447.3 638.4Z" fill="#D9DBE2"/>
<path d="M572.3 638.4C577.657 638.4 582 634.057 582 628.7C582 623.343 577.657 619 572.3 619C566.943 619 562.6 623.343 562.6 628.7C562.6 634.057 566.943 638.4 572.3 638.4Z" fill="#D9DBE2"/>
<path d="M697.3 638.4C702.657 638.4 707 634.057 707 628.7C707 623.343 702.657 619 697.3 619C691.943 619 687.6 623.343 687.6 628.7C687.6 634.057 691.943 638.4 697.3 638.4Z" fill="#D9DBE2"/>
<path d="M822.3 638.4C827.657 638.4 832 634.057 832 628.7C832 623.343 827.657 619 822.3 619C816.943 619 812.6 623.343 812.6 628.7C812.6 634.057 816.943 638.4 822.3 638.4Z" fill="#D9DBE2"/>
<path d="M947.3 638.4C952.657 638.4 957 634.057 957 628.7C957 623.343 952.657 619 947.3 619C941.943 619 937.6 623.343 937.6 628.7C937.6 634.057 941.943 638.4 947.3 638.4Z" fill="#D9DBE2"/>
<path d="M9.7 695.2C15.0572 695.2 19.4 690.857 19.4 685.5C19.4 680.143 15.0572 675.8 9.7 675.8C4.34284 675.8 0 680.143 0 685.5C0 690.857 4.34284 695.2 9.7 695.2Z" fill="#D9DBE2"/>
<path d="M134.7 695.2C140.057 695.2 144.4 690.857 144.4 685.5C144.4 680.143 140.057 675.8 134.7 675.8C129.343 675.8 125 680.143 125 685.5C125 690.857 129.343 695.2 134.7 695.2Z" fill="#D9DBE2"/>
<path d="M259.7 695.2C265.057 695.2 269.4 690.857 269.4 685.5C269.4 680.143 265.057 675.8 259.7 675.8C254.343 675.8 250 680.143 250 685.5C250 690.857 254.343 695.2 259.7 695.2Z" fill="#D9DBE2"/>
<path d="M384.8 695.2C390.157 695.2 394.5 690.857 394.5 685.5C394.5 680.143 390.157 675.8 384.8 675.8C379.443 675.8 375.1 680.143 375.1 685.5C375.1 690.857 379.443 695.2 384.8 695.2Z" fill="#D9DBE2"/>
<path d="M509.8 695.2C515.157 695.2 519.5 690.857 519.5 685.5C519.5 680.143 515.157 675.8 509.8 675.8C504.443 675.8 500.1 680.143 500.1 685.5C500.1 690.857 504.443 695.2 509.8 695.2Z" fill="#D9DBE2"/>
<path d="M634.8 695.2C640.157 695.2 644.5 690.857 644.5 685.5C644.5 680.143 640.157 675.8 634.8 675.8C629.443 675.8 625.1 680.143 625.1 685.5C625.1 690.857 629.443 695.2 634.8 695.2Z" fill="#D9DBE2"/>
<path d="M759.8 695.2C765.157 695.2 769.5 690.857 769.5 685.5C769.5 680.143 765.157 675.8 759.8 675.8C754.443 675.8 750.1 680.143 750.1 685.5C750.1 690.857 754.443 695.2 759.8 695.2Z" fill="#D9DBE2"/>
<path d="M884.8 695.2C890.157 695.2 894.5 690.857 894.5 685.5C894.5 680.143 890.157 675.8 884.8 675.8C879.443 675.8 875.1 680.143 875.1 685.5C875.1 690.857 879.443 695.2 884.8 695.2Z" fill="#D9DBE2"/>
<path d="M1009.8 695.2C1015.16 695.2 1019.5 690.857 1019.5 685.5C1019.5 680.143 1015.16 675.8 1009.8 675.8C1004.44 675.8 1000.1 680.143 1000.1 685.5C1000.1 690.857 1004.44 695.2 1009.8 695.2Z" fill="#D9DBE2"/>
<path d="M72.2 762.2C77.5572 762.2 81.9 757.857 81.9 752.5C81.9 747.143 77.5572 742.8 72.2 742.8C66.8428 742.8 62.5 747.143 62.5 752.5C62.5 757.857 66.8428 762.2 72.2 762.2Z" fill="#D9DBE2"/>
<path d="M197.2 762.2C202.557 762.2 206.9 757.857 206.9 752.5C206.9 747.143 202.557 742.8 197.2 742.8C191.843 742.8 187.5 747.143 187.5 752.5C187.5 757.857 191.843 762.2 197.2 762.2Z" fill="#D9DBE2"/>
<path d="M322.3 762.2C327.657 762.2 332 757.857 332 752.5C332 747.143 327.657 742.8 322.3 742.8C316.943 742.8 312.6 747.143 312.6 752.5C312.6 757.857 316.943 762.2 322.3 762.2Z" fill="#D9DBE2"/>
<path d="M447.3 762.2C452.657 762.2 457 757.857 457 752.5C457 747.143 452.657 742.8 447.3 742.8C441.943 742.8 437.6 747.143 437.6 752.5C437.6 757.857 441.943 762.2 447.3 762.2Z" fill="#D9DBE2"/>
<path d="M572.3 762.2C577.657 762.2 582 757.857 582 752.5C582 747.143 577.657 742.8 572.3 742.8C566.943 742.8 562.6 747.143 562.6 752.5C562.6 757.857 566.943 762.2 572.3 762.2Z" fill="#D9DBE2"/>
<path d="M697.3 762.2C702.657 762.2 707 757.857 707 752.5C707 747.143 702.657 742.8 697.3 742.8C691.943 742.8 687.6 747.143 687.6 752.5C687.6 757.857 691.943 762.2 697.3 762.2Z" fill="#D9DBE2"/>
<path d="M822.3 762.2C827.657 762.2 832 757.857 832 752.5C832 747.143 827.657 742.8 822.3 742.8C816.943 742.8 812.6 747.143 812.6 752.5C812.6 757.857 816.943 762.2 822.3 762.2Z" fill="#D9DBE2"/>
<path d="M947.3 762.2C952.657 762.2 957 757.857 957 752.5C957 747.143 952.657 742.8 947.3 742.8C941.943 742.8 937.6 747.143 937.6 752.5C937.6 757.857 941.943 762.2 947.3 762.2Z" fill="#D9DBE2"/>
<path d="M9.7 819C15.0572 819 19.4 814.657 19.4 809.3C19.4 803.943 15.0572 799.6 9.7 799.6C4.34284 799.6 0 803.943 0 809.3C0 814.657 4.34284 819 9.7 819Z" fill="#D9DBE2"/>
<path d="M134.7 819C140.057 819 144.4 814.657 144.4 809.3C144.4 803.943 140.057 799.6 134.7 799.6C129.343 799.6 125 803.943 125 809.3C125 814.657 129.343 819 134.7 819Z" fill="#D9DBE2"/>
<path d="M259.7 819C265.057 819 269.4 814.657 269.4 809.3C269.4 803.943 265.057 799.6 259.7 799.6C254.343 799.6 250 803.943 250 809.3C250 814.657 254.343 819 259.7 819Z" fill="#D9DBE2"/>
<path d="M384.8 819C390.157 819 394.5 814.657 394.5 809.3C394.5 803.943 390.157 799.6 384.8 799.6C379.443 799.6 375.1 803.943 375.1 809.3C375.1 814.657 379.443 819 384.8 819Z" fill="#D9DBE2"/>
<path d="M509.8 819C515.157 819 519.5 814.657 519.5 809.3C519.5 803.943 515.157 799.6 509.8 799.6C504.443 799.6 500.1 803.943 500.1 809.3C500.1 814.657 504.443 819 509.8 819Z" fill="#D9DBE2"/>
<path d="M634.8 819C640.157 819 644.5 814.657 644.5 809.3C644.5 803.943 640.157 799.6 634.8 799.6C629.443 799.6 625.1 803.943 625.1 809.3C625.1 814.657 629.443 819 634.8 819Z" fill="#D9DBE2"/>
<path d="M759.8 819C765.157 819 769.5 814.657 769.5 809.3C769.5 803.943 765.157 799.6 759.8 799.6C754.443 799.6 750.1 803.943 750.1 809.3C750.1 814.657 754.443 819 759.8 819Z" fill="#D9DBE2"/>
<path d="M884.8 819C890.157 819 894.5 814.657 894.5 809.3C894.5 803.943 890.157 799.6 884.8 799.6C879.443 799.6 875.1 803.943 875.1 809.3C875.1 814.657 879.443 819 884.8 819Z" fill="#D9DBE2"/>
<path d="M1009.8 819C1015.16 819 1019.5 814.657 1019.5 809.3C1019.5 803.943 1015.16 799.6 1009.8 799.6C1004.44 799.6 1000.1 803.943 1000.1 809.3C1000.1 814.657 1004.44 819 1009.8 819Z" fill="#D9DBE2"/>
<path d="M72.2 886C77.5572 886 81.9 881.657 81.9 876.3C81.9 870.943 77.5572 866.6 72.2 866.6C66.8428 866.6 62.5 870.943 62.5 876.3C62.5 881.657 66.8428 886 72.2 886Z" fill="#D9DBE2"/>
<path d="M197.2 886C202.557 886 206.9 881.657 206.9 876.3C206.9 870.943 202.557 866.6 197.2 866.6C191.843 866.6 187.5 870.943 187.5 876.3C187.5 881.657 191.843 886 197.2 886Z" fill="#D9DBE2"/>
<path d="M322.3 886C327.657 886 332 881.657 332 876.3C332 870.943 327.657 866.6 322.3 866.6C316.943 866.6 312.6 870.943 312.6 876.3C312.6 881.657 316.943 886 322.3 886Z" fill="#D9DBE2"/>
<path d="M447.3 886C452.657 886 457 881.657 457 876.3C457 870.943 452.657 866.6 447.3 866.6C441.943 866.6 437.6 870.943 437.6 876.3C437.6 881.657 441.943 886 447.3 886Z" fill="#D9DBE2"/>
<path d="M572.3 886C577.657 886 582 881.657 582 876.3C582 870.943 577.657 866.6 572.3 866.6C566.943 866.6 562.6 870.943 562.6 876.3C562.6 881.657 566.943 886 572.3 886Z" fill="#D9DBE2"/>
<path d="M697.3 886C702.657 886 707 881.657 707 876.3C707 870.943 702.657 866.6 697.3 866.6C691.943 866.6 687.6 870.943 687.6 876.3C687.6 881.657 691.943 886 697.3 886Z" fill="#D9DBE2"/>
<path d="M822.3 886C827.657 886 832 881.657 832 876.3C832 870.943 827.657 866.6 822.3 866.6C816.943 866.6 812.6 870.943 812.6 876.3C812.6 881.657 816.943 886 822.3 886Z" fill="#D9DBE2"/>
<path d="M947.3 886C952.657 886 957 881.657 957 876.3C957 870.943 952.657 866.6 947.3 866.6C941.943 866.6 937.6 870.943 937.6 876.3C937.6 881.657 941.943 886 947.3 886Z" fill="#D9DBE2"/>
<path d="M9.7 942.8C15.0572 942.8 19.4 938.457 19.4 933.1C19.4 927.743 15.0572 923.4 9.7 923.4C4.34284 923.4 0 927.743 0 933.1C0 938.457 4.34284 942.8 9.7 942.8Z" fill="#D9DBE2"/>
<path d="M134.7 942.8C140.057 942.8 144.4 938.457 144.4 933.1C144.4 927.743 140.057 923.4 134.7 923.4C129.343 923.4 125 927.743 125 933.1C125 938.457 129.343 942.8 134.7 942.8Z" fill="#D9DBE2"/>
<path d="M259.7 942.8C265.057 942.8 269.4 938.457 269.4 933.1C269.4 927.743 265.057 923.4 259.7 923.4C254.343 923.4 250 927.743 250 933.1C250 938.457 254.343 942.8 259.7 942.8Z" fill="#D9DBE2"/>
<path d="M384.8 942.8C390.157 942.8 394.5 938.457 394.5 933.1C394.5 927.743 390.157 923.4 384.8 923.4C379.443 923.4 375.1 927.743 375.1 933.1C375.1 938.457 379.443 942.8 384.8 942.8Z" fill="#D9DBE2"/>
<path d="M509.8 942.8C515.157 942.8 519.5 938.457 519.5 933.1C519.5 927.743 515.157 923.4 509.8 923.4C504.443 923.4 500.1 927.743 500.1 933.1C500.1 938.457 504.443 942.8 509.8 942.8Z" fill="#D9DBE2"/>
<path d="M634.8 942.8C640.157 942.8 644.5 938.457 644.5 933.1C644.5 927.743 640.157 923.4 634.8 923.4C629.443 923.4 625.1 927.743 625.1 933.1C625.1 938.457 629.443 942.8 634.8 942.8Z" fill="#D9DBE2"/>
<path d="M759.8 942.8C765.157 942.8 769.5 938.457 769.5 933.1C769.5 927.743 765.157 923.4 759.8 923.4C754.443 923.4 750.1 927.743 750.1 933.1C750.1 938.457 754.443 942.8 759.8 942.8Z" fill="#D9DBE2"/>
<path d="M884.8 942.8C890.157 942.8 894.5 938.457 894.5 933.1C894.5 927.743 890.157 923.4 884.8 923.4C879.443 923.4 875.1 927.743 875.1 933.1C875.1 938.457 879.443 942.8 884.8 942.8Z" fill="#D9DBE2"/>
<path d="M1009.8 942.8C1015.16 942.8 1019.5 938.457 1019.5 933.1C1019.5 927.743 1015.16 923.4 1009.8 923.4C1004.44 923.4 1000.1 927.743 1000.1 933.1C1000.1 938.457 1004.44 942.8 1009.8 942.8Z" fill="#D9DBE2"/>
<path d="M72.2 1009.8C77.5572 1009.8 81.9 1005.46 81.9 1000.1C81.9 994.743 77.5572 990.4 72.2 990.4C66.8428 990.4 62.5 994.743 62.5 1000.1C62.5 1005.46 66.8428 1009.8 72.2 1009.8Z" fill="#D9DBE2"/>
<path d="M197.2 1009.8C202.557 1009.8 206.9 1005.46 206.9 1000.1C206.9 994.743 202.557 990.4 197.2 990.4C191.843 990.4 187.5 994.743 187.5 1000.1C187.5 1005.46 191.843 1009.8 197.2 1009.8Z" fill="#D9DBE2"/>
<path d="M322.3 1009.8C327.657 1009.8 332 1005.46 332 1000.1C332 994.743 327.657 990.4 322.3 990.4C316.943 990.4 312.6 994.743 312.6 1000.1C312.6 1005.46 316.943 1009.8 322.3 1009.8Z" fill="#D9DBE2"/>
<path d="M447.3 1009.8C452.657 1009.8 457 1005.46 457 1000.1C457 994.743 452.657 990.4 447.3 990.4C441.943 990.4 437.6 994.743 437.6 1000.1C437.6 1005.46 441.943 1009.8 447.3 1009.8Z" fill="#D9DBE2"/>
<path d="M572.3 1009.8C577.657 1009.8 582 1005.46 582 1000.1C582 994.743 577.657 990.4 572.3 990.4C566.943 990.4 562.6 994.743 562.6 1000.1C562.6 1005.46 566.943 1009.8 572.3 1009.8Z" fill="#D9DBE2"/>
<path d="M697.3 1009.8C702.657 1009.8 707 1005.46 707 1000.1C707 994.743 702.657 990.4 697.3 990.4C691.943 990.4 687.6 994.743 687.6 1000.1C687.6 1005.46 691.943 1009.8 697.3 1009.8Z" fill="#D9DBE2"/>
<path d="M822.3 1009.8C827.657 1009.8 832 1005.46 832 1000.1C832 994.743 827.657 990.4 822.3 990.4C816.943 990.4 812.6 994.743 812.6 1000.1C812.6 1005.46 816.943 1009.8 822.3 1009.8Z" fill="#D9DBE2"/>
<path d="M947.3 1009.8C952.657 1009.8 957 1005.46 957 1000.1C957 994.743 952.657 990.4 947.3 990.4C941.943 990.4 937.6 994.743 937.6 1000.1C937.6 1005.46 941.943 1009.8 947.3 1009.8Z" fill="#D9DBE2"/>
<path d="M9.7 1066.6C15.0572 1066.6 19.4 1062.26 19.4 1056.9C19.4 1051.54 15.0572 1047.2 9.7 1047.2C4.34284 1047.2 0 1051.54 0 1056.9C0 1062.26 4.34284 1066.6 9.7 1066.6Z" fill="#D9DBE2"/>
<path d="M134.7 1066.6C140.057 1066.6 144.4 1062.26 144.4 1056.9C144.4 1051.54 140.057 1047.2 134.7 1047.2C129.343 1047.2 125 1051.54 125 1056.9C125 1062.26 129.343 1066.6 134.7 1066.6Z" fill="#D9DBE2"/>
<path d="M259.7 1066.6C265.057 1066.6 269.4 1062.26 269.4 1056.9C269.4 1051.54 265.057 1047.2 259.7 1047.2C254.343 1047.2 250 1051.54 250 1056.9C250 1062.26 254.343 1066.6 259.7 1066.6Z" fill="#D9DBE2"/>
<path d="M384.8 1066.6C390.157 1066.6 394.5 1062.26 394.5 1056.9C394.5 1051.54 390.157 1047.2 384.8 1047.2C379.443 1047.2 375.1 1051.54 375.1 1056.9C375.1 1062.26 379.443 1066.6 384.8 1066.6Z" fill="#D9DBE2"/>
<path d="M509.8 1066.6C515.157 1066.6 519.5 1062.26 519.5 1056.9C519.5 1051.54 515.157 1047.2 509.8 1047.2C504.443 1047.2 500.1 1051.54 500.1 1056.9C500.1 1062.26 504.443 1066.6 509.8 1066.6Z" fill="#D9DBE2"/>
<path d="M634.8 1066.6C640.157 1066.6 644.5 1062.26 644.5 1056.9C644.5 1051.54 640.157 1047.2 634.8 1047.2C629.443 1047.2 625.1 1051.54 625.1 1056.9C625.1 1062.26 629.443 1066.6 634.8 1066.6Z" fill="#D9DBE2"/>
<path d="M759.8 1066.6C765.157 1066.6 769.5 1062.26 769.5 1056.9C769.5 1051.54 765.157 1047.2 759.8 1047.2C754.443 1047.2 750.1 1051.54 750.1 1056.9C750.1 1062.26 754.443 1066.6 759.8 1066.6Z" fill="#D9DBE2"/>
<path d="M884.8 1066.6C890.157 1066.6 894.5 1062.26 894.5 1056.9C894.5 1051.54 890.157 1047.2 884.8 1047.2C879.443 1047.2 875.1 1051.54 875.1 1056.9C875.1 1062.26 879.443 1066.6 884.8 1066.6Z" fill="#D9DBE2"/>
<path d="M1009.8 1066.6C1015.16 1066.6 1019.5 1062.26 1019.5 1056.9C1019.5 1051.54 1015.16 1047.2 1009.8 1047.2C1004.44 1047.2 1000.1 1051.54 1000.1 1056.9C1000.1 1062.26 1004.44 1066.6 1009.8 1066.6Z" fill="#D9DBE2"/>
<path d="M72.2 1133.6C77.5572 1133.6 81.9 1129.26 81.9 1123.9C81.9 1118.54 77.5572 1114.2 72.2 1114.2C66.8428 1114.2 62.5 1118.54 62.5 1123.9C62.5 1129.26 66.8428 1133.6 72.2 1133.6Z" fill="#D9DBE2"/>
<path d="M197.2 1133.6C202.557 1133.6 206.9 1129.26 206.9 1123.9C206.9 1118.54 202.557 1114.2 197.2 1114.2C191.843 1114.2 187.5 1118.54 187.5 1123.9C187.5 1129.26 191.843 1133.6 197.2 1133.6Z" fill="#D9DBE2"/>
<path d="M322.3 1133.6C327.657 1133.6 332 1129.26 332 1123.9C332 1118.54 327.657 1114.2 322.3 1114.2C316.943 1114.2 312.6 1118.54 312.6 1123.9C312.6 1129.26 316.943 1133.6 322.3 1133.6Z" fill="#D9DBE2"/>
<path d="M447.3 1133.6C452.657 1133.6 457 1129.26 457 1123.9C457 1118.54 452.657 1114.2 447.3 1114.2C441.943 1114.2 437.6 1118.54 437.6 1123.9C437.6 1129.26 441.943 1133.6 447.3 1133.6Z" fill="#D9DBE2"/>
<path d="M572.3 1133.6C577.657 1133.6 582 1129.26 582 1123.9C582 1118.54 577.657 1114.2 572.3 1114.2C566.943 1114.2 562.6 1118.54 562.6 1123.9C562.6 1129.26 566.943 1133.6 572.3 1133.6Z" fill="#D9DBE2"/>
<path d="M697.3 1133.6C702.657 1133.6 707 1129.26 707 1123.9C707 1118.54 702.657 1114.2 697.3 1114.2C691.943 1114.2 687.6 1118.54 687.6 1123.9C687.6 1129.26 691.943 1133.6 697.3 1133.6Z" fill="#D9DBE2"/>
<path d="M822.3 1133.6C827.657 1133.6 832 1129.26 832 1123.9C832 1118.54 827.657 1114.2 822.3 1114.2C816.943 1114.2 812.6 1118.54 812.6 1123.9C812.6 1129.26 816.943 1133.6 822.3 1133.6Z" fill="#D9DBE2"/>
<path d="M947.3 1133.6C952.657 1133.6 957 1129.26 957 1123.9C957 1118.54 952.657 1114.2 947.3 1114.2C941.943 1114.2 937.6 1118.54 937.6 1123.9C937.6 1129.26 941.943 1133.6 947.3 1133.6Z" fill="#D9DBE2"/>
<path d="M9.7 1190.4C15.0572 1190.4 19.4 1186.06 19.4 1180.7C19.4 1175.34 15.0572 1171 9.7 1171C4.34284 1171 0 1175.34 0 1180.7C0 1186.06 4.34284 1190.4 9.7 1190.4Z" fill="#D9DBE2"/>
<path d="M134.7 1190.4C140.057 1190.4 144.4 1186.06 144.4 1180.7C144.4 1175.34 140.057 1171 134.7 1171C129.343 1171 125 1175.34 125 1180.7C125 1186.06 129.343 1190.4 134.7 1190.4Z" fill="#D9DBE2"/>
<path d="M259.7 1190.4C265.057 1190.4 269.4 1186.06 269.4 1180.7C269.4 1175.34 265.057 1171 259.7 1171C254.343 1171 250 1175.34 250 1180.7C250 1186.06 254.343 1190.4 259.7 1190.4Z" fill="#D9DBE2"/>
<path d="M384.8 1190.4C390.157 1190.4 394.5 1186.06 394.5 1180.7C394.5 1175.34 390.157 1171 384.8 1171C379.443 1171 375.1 1175.34 375.1 1180.7C375.1 1186.06 379.443 1190.4 384.8 1190.4Z" fill="#D9DBE2"/>
<path d="M509.8 1190.4C515.157 1190.4 519.5 1186.06 519.5 1180.7C519.5 1175.34 515.157 1171 509.8 1171C504.443 1171 500.1 1175.34 500.1 1180.7C500.1 1186.06 504.443 1190.4 509.8 1190.4Z" fill="#D9DBE2"/>
<path d="M634.8 1190.4C640.157 1190.4 644.5 1186.06 644.5 1180.7C644.5 1175.34 640.157 1171 634.8 1171C629.443 1171 625.1 1175.34 625.1 1180.7C625.1 1186.06 629.443 1190.4 634.8 1190.4Z" fill="#D9DBE2"/>
<path d="M759.8 1190.4C765.157 1190.4 769.5 1186.06 769.5 1180.7C769.5 1175.34 765.157 1171 759.8 1171C754.443 1171 750.1 1175.34 750.1 1180.7C750.1 1186.06 754.443 1190.4 759.8 1190.4Z" fill="#D9DBE2"/>
<path d="M884.8 1190.4C890.157 1190.4 894.5 1186.06 894.5 1180.7C894.5 1175.34 890.157 1171 884.8 1171C879.443 1171 875.1 1175.34 875.1 1180.7C875.1 1186.06 879.443 1190.4 884.8 1190.4Z" fill="#D9DBE2"/>
<path d="M1009.8 1190.4C1015.16 1190.4 1019.5 1186.06 1019.5 1180.7C1019.5 1175.34 1015.16 1171 1009.8 1171C1004.44 1171 1000.1 1175.34 1000.1 1180.7C1000.1 1186.06 1004.44 1190.4 1009.8 1190.4Z" fill="#D9DBE2"/>
<path d="M72.2 1257.4C77.5572 1257.4 81.9 1253.06 81.9 1247.7C81.9 1242.34 77.5572 1238 72.2 1238C66.8428 1238 62.5 1242.34 62.5 1247.7C62.5 1253.06 66.8428 1257.4 72.2 1257.4Z" fill="#D9DBE2"/>
<path d="M197.2 1257.4C202.557 1257.4 206.9 1253.06 206.9 1247.7C206.9 1242.34 202.557 1238 197.2 1238C191.843 1238 187.5 1242.34 187.5 1247.7C187.5 1253.06 191.843 1257.4 197.2 1257.4Z" fill="#D9DBE2"/>
<path d="M322.3 1257.4C327.657 1257.4 332 1253.06 332 1247.7C332 1242.34 327.657 1238 322.3 1238C316.943 1238 312.6 1242.34 312.6 1247.7C312.6 1253.06 316.943 1257.4 322.3 1257.4Z" fill="#D9DBE2"/>
<path d="M447.3 1257.4C452.657 1257.4 457 1253.06 457 1247.7C457 1242.34 452.657 1238 447.3 1238C441.943 1238 437.6 1242.34 437.6 1247.7C437.6 1253.06 441.943 1257.4 447.3 1257.4Z" fill="#D9DBE2"/>
<path d="M572.3 1257.4C577.657 1257.4 582 1253.06 582 1247.7C582 1242.34 577.657 1238 572.3 1238C566.943 1238 562.6 1242.34 562.6 1247.7C562.6 1253.06 566.943 1257.4 572.3 1257.4Z" fill="#D9DBE2"/>
<path d="M697.3 1257.4C702.657 1257.4 707 1253.06 707 1247.7C707 1242.34 702.657 1238 697.3 1238C691.943 1238 687.6 1242.34 687.6 1247.7C687.6 1253.06 691.943 1257.4 697.3 1257.4Z" fill="#D9DBE2"/>
<path d="M822.3 1257.4C827.657 1257.4 832 1253.06 832 1247.7C832 1242.34 827.657 1238 822.3 1238C816.943 1238 812.6 1242.34 812.6 1247.7C812.6 1253.06 816.943 1257.4 822.3 1257.4Z" fill="#D9DBE2"/>
<path d="M947.3 1257.4C952.657 1257.4 957 1253.06 957 1247.7C957 1242.34 952.657 1238 947.3 1238C941.943 1238 937.6 1242.34 937.6 1247.7C937.6 1253.06 941.943 1257.4 947.3 1257.4Z" fill="#D9DBE2"/>
<path d="M9.7 1314.2C15.0572 1314.2 19.4 1309.86 19.4 1304.5C19.4 1299.14 15.0572 1294.8 9.7 1294.8C4.34284 1294.8 0 1299.14 0 1304.5C0 1309.86 4.34284 1314.2 9.7 1314.2Z" fill="#D9DBE2"/>
<path d="M134.7 1314.2C140.057 1314.2 144.4 1309.86 144.4 1304.5C144.4 1299.14 140.057 1294.8 134.7 1294.8C129.343 1294.8 125 1299.14 125 1304.5C125 1309.86 129.343 1314.2 134.7 1314.2Z" fill="#D9DBE2"/>
<path d="M259.7 1314.2C265.057 1314.2 269.4 1309.86 269.4 1304.5C269.4 1299.14 265.057 1294.8 259.7 1294.8C254.343 1294.8 250 1299.14 250 1304.5C250 1309.86 254.343 1314.2 259.7 1314.2Z" fill="#D9DBE2"/>
<path d="M384.8 1314.2C390.157 1314.2 394.5 1309.86 394.5 1304.5C394.5 1299.14 390.157 1294.8 384.8 1294.8C379.443 1294.8 375.1 1299.14 375.1 1304.5C375.1 1309.86 379.443 1314.2 384.8 1314.2Z" fill="#D9DBE2"/>
<path d="M509.8 1314.2C515.157 1314.2 519.5 1309.86 519.5 1304.5C519.5 1299.14 515.157 1294.8 509.8 1294.8C504.443 1294.8 500.1 1299.14 500.1 1304.5C500.1 1309.86 504.443 1314.2 509.8 1314.2Z" fill="#D9DBE2"/>
<path d="M634.8 1314.2C640.157 1314.2 644.5 1309.86 644.5 1304.5C644.5 1299.14 640.157 1294.8 634.8 1294.8C629.443 1294.8 625.1 1299.14 625.1 1304.5C625.1 1309.86 629.443 1314.2 634.8 1314.2Z" fill="#D9DBE2"/>
<path d="M759.8 1314.2C765.157 1314.2 769.5 1309.86 769.5 1304.5C769.5 1299.14 765.157 1294.8 759.8 1294.8C754.443 1294.8 750.1 1299.14 750.1 1304.5C750.1 1309.86 754.443 1314.2 759.8 1314.2Z" fill="#D9DBE2"/>
<path d="M884.8 1314.2C890.157 1314.2 894.5 1309.86 894.5 1304.5C894.5 1299.14 890.157 1294.8 884.8 1294.8C879.443 1294.8 875.1 1299.14 875.1 1304.5C875.1 1309.86 879.443 1314.2 884.8 1314.2Z" fill="#D9DBE2"/>
<path d="M1009.8 1314.2C1015.16 1314.2 1019.5 1309.86 1019.5 1304.5C1019.5 1299.14 1015.16 1294.8 1009.8 1294.8C1004.44 1294.8 1000.1 1299.14 1000.1 1304.5C1000.1 1309.86 1004.44 1314.2 1009.8 1314.2Z" fill="#D9DBE2"/>
<path d="M72.2 1381.2C77.5572 1381.2 81.9 1376.86 81.9 1371.5C81.9 1366.14 77.5572 1361.8 72.2 1361.8C66.8428 1361.8 62.5 1366.14 62.5 1371.5C62.5 1376.86 66.8428 1381.2 72.2 1381.2Z" fill="#D9DBE2"/>
<path d="M197.2 1381.2C202.557 1381.2 206.9 1376.86 206.9 1371.5C206.9 1366.14 202.557 1361.8 197.2 1361.8C191.843 1361.8 187.5 1366.14 187.5 1371.5C187.5 1376.86 191.843 1381.2 197.2 1381.2Z" fill="#D9DBE2"/>
<path d="M322.3 1381.2C327.657 1381.2 332 1376.86 332 1371.5C332 1366.14 327.657 1361.8 322.3 1361.8C316.943 1361.8 312.6 1366.14 312.6 1371.5C312.6 1376.86 316.943 1381.2 322.3 1381.2Z" fill="#D9DBE2"/>
<path d="M447.3 1381.2C452.657 1381.2 457 1376.86 457 1371.5C457 1366.14 452.657 1361.8 447.3 1361.8C441.943 1361.8 437.6 1366.14 437.6 1371.5C437.6 1376.86 441.943 1381.2 447.3 1381.2Z" fill="#D9DBE2"/>
<path d="M572.3 1381.2C577.657 1381.2 582 1376.86 582 1371.5C582 1366.14 577.657 1361.8 572.3 1361.8C566.943 1361.8 562.6 1366.14 562.6 1371.5C562.6 1376.86 566.943 1381.2 572.3 1381.2Z" fill="#D9DBE2"/>
<path d="M697.3 1381.2C702.657 1381.2 707 1376.86 707 1371.5C707 1366.14 702.657 1361.8 697.3 1361.8C691.943 1361.8 687.6 1366.14 687.6 1371.5C687.6 1376.86 691.943 1381.2 697.3 1381.2Z" fill="#D9DBE2"/>
<path d="M822.3 1381.2C827.657 1381.2 832 1376.86 832 1371.5C832 1366.14 827.657 1361.8 822.3 1361.8C816.943 1361.8 812.6 1366.14 812.6 1371.5C812.6 1376.86 816.943 1381.2 822.3 1381.2Z" fill="#D9DBE2"/>
<path d="M947.3 1381.2C952.657 1381.2 957 1376.86 957 1371.5C957 1366.14 952.657 1361.8 947.3 1361.8C941.943 1361.8 937.6 1366.14 937.6 1371.5C937.6 1376.86 941.943 1381.2 947.3 1381.2Z" fill="#D9DBE2"/>
<path d="M9.7 1438C15.0572 1438 19.4 1433.66 19.4 1428.3C19.4 1422.94 15.0572 1418.6 9.7 1418.6C4.34284 1418.6 0 1422.94 0 1428.3C0 1433.66 4.34284 1438 9.7 1438Z" fill="#D9DBE2"/>
<path d="M134.7 1438C140.057 1438 144.4 1433.66 144.4 1428.3C144.4 1422.94 140.057 1418.6 134.7 1418.6C129.343 1418.6 125 1422.94 125 1428.3C125 1433.66 129.343 1438 134.7 1438Z" fill="#D9DBE2"/>
<path d="M259.7 1438C265.057 1438 269.4 1433.66 269.4 1428.3C269.4 1422.94 265.057 1418.6 259.7 1418.6C254.343 1418.6 250 1422.94 250 1428.3C250 1433.66 254.343 1438 259.7 1438Z" fill="#D9DBE2"/>
<path d="M384.8 1438C390.157 1438 394.5 1433.66 394.5 1428.3C394.5 1422.94 390.157 1418.6 384.8 1418.6C379.443 1418.6 375.1 1422.94 375.1 1428.3C375.1 1433.66 379.443 1438 384.8 1438Z" fill="#D9DBE2"/>
<path d="M509.8 1438C515.157 1438 519.5 1433.66 519.5 1428.3C519.5 1422.94 515.157 1418.6 509.8 1418.6C504.443 1418.6 500.1 1422.94 500.1 1428.3C500.1 1433.66 504.443 1438 509.8 1438Z" fill="#D9DBE2"/>
<path d="M634.8 1438C640.157 1438 644.5 1433.66 644.5 1428.3C644.5 1422.94 640.157 1418.6 634.8 1418.6C629.443 1418.6 625.1 1422.94 625.1 1428.3C625.1 1433.66 629.443 1438 634.8 1438Z" fill="#D9DBE2"/>
<path d="M759.8 1438C765.157 1438 769.5 1433.66 769.5 1428.3C769.5 1422.94 765.157 1418.6 759.8 1418.6C754.443 1418.6 750.1 1422.94 750.1 1428.3C750.1 1433.66 754.443 1438 759.8 1438Z" fill="#D9DBE2"/>
<path d="M884.8 1438C890.157 1438 894.5 1433.66 894.5 1428.3C894.5 1422.94 890.157 1418.6 884.8 1418.6C879.443 1418.6 875.1 1422.94 875.1 1428.3C875.1 1433.66 879.443 1438 884.8 1438Z" fill="#D9DBE2"/>
<path d="M1009.8 1438C1015.16 1438 1019.5 1433.66 1019.5 1428.3C1019.5 1422.94 1015.16 1418.6 1009.8 1418.6C1004.44 1418.6 1000.1 1422.94 1000.1 1428.3C1000.1 1433.66 1004.44 1438 1009.8 1438Z" fill="#D9DBE2"/>
</svg>
