<svg width="50" height="50" viewBox="0 0 50 50" fill="none" xmlns="http://www.w3.org/2000/svg">
<path d="M50 25C50 25.1705 49.8772 25.3137 49.7068 25.3342C30.4692 28.1915 28.1915 30.476 25.3342 49.7068C25.3069 49.8704 25.1637 50 25 50C24.8363 50 24.6863 49.8772 24.6658 49.7068C21.8085 30.4692 19.524 28.1915 0.293235 25.3342C0.129569 25.3069 0 25.1637 0 25C0 24.8363 0.122749 24.6863 0.293235 24.6658C19.5308 21.8085 21.8085 19.524 24.6658 0.293235C24.6931 0.129569 24.8363 0 25 0C25.1637 0 25.3137 0.12275 25.3342 0.293235C28.1915 19.5308 30.476 21.8085 49.7068 24.6658C49.8704 24.6931 50 24.8363 50 25Z" fill="#ECF2D2"/>
</svg>
